<svg width="1680" height="837" xmlns="http://www.w3.org/2000/svg"><g><path d="M-75,-25L-98,791L-78,108Z" fill="#ffe49b" stroke="#ffe49b"/><path d="M-75,-25L-78,108L25,20Z" fill="#ffffe5" stroke="#ffffe5"/><path d="M-75,-25L25,20L53,-33Z" fill="#ffffea" stroke="#ffffea"/><path d="M-75,-25L53,-33L248,-124Z" fill="#fffbe2" stroke="#fffbe2"/><path d="M53,-33L25,20L259,61Z" fill="#fff9d9" stroke="#fff9d9"/><path d="M53,-33L259,61L248,-124Z" fill="#fff5d6" stroke="#fff5d6"/><path d="M248,-124L259,61L333,-120Z" fill="#ffefcd" stroke="#ffefcd"/><path d="M248,-124L333,-120L1541,-131Z" fill="#fdc993" stroke="#fdc993"/><path d="M333,-120L259,61L380,55Z" fill="#ffedc8" stroke="#ffedc8"/><path d="M333,-120L380,55L495,-111Z" fill="#ffe6bd" stroke="#ffe6bd"/><path d="M333,-120L495,-111L986,-109Z" fill="#ffd39e" stroke="#ffd39e"/><path d="M333,-120L986,-109L1541,-131Z" fill="#efb489" stroke="#efb489"/><path d="M495,-111L380,55L512,77Z" fill="#ffe0b1" stroke="#ffe0b1"/><path d="M495,-111L512,77L633,-58Z" fill="#ffd8a7" stroke="#ffd8a7"/><path d="M495,-111L633,-58L791,-92Z" fill="#ffcf99" stroke="#ffcf99"/><path d="M495,-111L791,-92L986,-109Z" fill="#fac591" stroke="#fac591"/><path d="M633,-58L512,77L715,39Z" fill="#ffd196" stroke="#ffd196"/><path d="M633,-58L715,39L791,-92Z" fill="#fcc993" stroke="#fcc993"/><path d="M791,-92L715,39L837,20Z" fill="#f9c390" stroke="#f9c390"/><path d="M791,-92L837,20L986,-109Z" fill="#f4bb8c" stroke="#f4bb8c"/><path d="M986,-109L837,20L944,123Z" fill="#f1b786" stroke="#f1b786"/><path d="M986,-109L944,123L1139,-57Z" fill="#ebae87" stroke="#ebae87"/><path d="M986,-109L1139,-57L1541,-131Z" fill="#d8a284" stroke="#d8a284"/><path d="M1139,-57L944,123L1175,70Z" fill="#e5aa79" stroke="#e5aa79"/><path d="M1139,-57L1175,70L1263,51Z" fill="#dba37e" stroke="#dba37e"/><path d="M1139,-57L1263,51L1314,-31Z" fill="#d6a083" stroke="#d6a083"/><path d="M1139,-57L1314,-31L1541,-131Z" fill="#cd9b82" stroke="#cd9b82"/><path d="M1314,-31L1263,51L1410,84Z" fill="#ce9b78" stroke="#ce9b78"/><path d="M1314,-31L1410,84L1481,-30Z" fill="#c7967e" stroke="#c7967e"/><path d="M1314,-31L1481,-30L1541,-131Z" fill="#c39380" stroke="#c39380"/><path d="M1481,-30L1410,84L1517,41Z" fill="#c09277" stroke="#c09277"/><path d="M1481,-30L1517,41L1541,-131Z" fill="#bc8f80" stroke="#bc8f80"/><path d="M1541,-131L1517,41L1746,52Z" fill="#b48980" stroke="#b48980"/><path d="M1541,-131L1746,52L1773,-18Z" fill="#ac8480" stroke="#ac8480"/><path d="M1541,-131L1773,-18L1912,-38Z" fill="#a68080" stroke="#a68080"/><path d="M1773,-18L1746,52L1818,125Z" fill="#a38071" stroke="#a38071"/><path d="M1773,-18L1818,125L1912,-38Z" fill="#9e8079" stroke="#9e8079"/><path d="M1912,-38L1818,125L1924,186Z" fill="#998068" stroke="#998068"/><path d="M-78,108L-98,791L-66,431Z" fill="#ffc487" stroke="#ffc487"/><path d="M-78,108L-66,431L-37,280Z" fill="#ffe89f" stroke="#ffe89f"/><path d="M-78,108L-37,280L76,268Z" fill="#fff4ae" stroke="#fff4ae"/><path d="M-78,108L76,268L25,20Z" fill="#ffffc7" stroke="#ffffc7"/><path d="M25,20L76,268L178,220Z" fill="#fff9b5" stroke="#fff9b5"/><path d="M25,20L178,220L259,61Z" fill="#fff7c0" stroke="#fff7c0"/><path d="M259,61L178,220L385,281Z" fill="#ffeb9b" stroke="#ffeb9b"/><path d="M259,61L385,281L380,55Z" fill="#ffeca4" stroke="#ffeca4"/><path d="M380,55L385,281L512,77Z" fill="#ffe496" stroke="#ffe496"/><path d="M512,77L385,281L558,192Z" fill="#ffdb80" stroke="#ffdb80"/><path d="M512,77L558,192L715,39Z" fill="#ffd485" stroke="#ffd485"/><path d="M715,39L558,192L681,281Z" fill="#ffce6b" stroke="#ffce6b"/><path d="M715,39L681,281L855,208Z" fill="#fac363" stroke="#fac363"/><path d="M715,39L855,208L837,20Z" fill="#f8c178" stroke="#f8c178"/><path d="M837,20L855,208L944,123Z" fill="#f3ba6d" stroke="#f3ba6d"/><path d="M944,123L855,208L979,250Z" fill="#f1b156" stroke="#f1b156"/><path d="M944,123L979,250L1175,70Z" fill="#eaae60" stroke="#eaae60"/><path d="M1175,70L979,250L1174,282Z" fill="#e3a14e" stroke="#e3a14e"/><path d="M1175,70L1174,282L1267,241Z" fill="#d99c4e" stroke="#d99c4e"/><path d="M1175,70L1267,241L1263,51Z" fill="#d7a164" stroke="#d7a164"/><path d="M1263,51L1267,241L1391,182Z" fill="#d09c5a" stroke="#d09c5a"/><path d="M1263,51L1391,182L1410,84Z" fill="#cb9966" stroke="#cb9966"/><path d="M1410,84L1391,182L1562,219Z" fill="#c29357" stroke="#c29357"/><path d="M1410,84L1562,219L1517,41Z" fill="#be9062" stroke="#be9062"/><path d="M1517,41L1562,219L1746,52Z" fill="#b38965" stroke="#b38965"/><path d="M1746,52L1562,219L1710,252Z" fill="#ad8352" stroke="#ad8352"/><path d="M1746,52L1710,252L1818,125Z" fill="#a5805b" stroke="#a5805b"/><path d="M1818,125L1710,252L1850,316Z" fill="#a2723e" stroke="#a2723e"/><path d="M1818,125L1850,316L1924,186Z" fill="#9b7746" stroke="#9b7746"/><path d="M-37,280L-66,431L100,391Z" fill="#ffd481" stroke="#ffd481"/><path d="M-37,280L100,391L76,268Z" fill="#ffdd86" stroke="#ffdd86"/><path d="M76,268L100,391L169,366Z" fill="#ffd376" stroke="#ffd376"/><path d="M76,268L169,366L178,220Z" fill="#ffde86" stroke="#ffde86"/><path d="M178,220L169,366L385,281Z" fill="#ffd77a" stroke="#ffd77a"/><path d="M385,281L169,366L417,370Z" fill="#ffc761" stroke="#ffc761"/><path d="M385,281L417,370L523,391Z" fill="#ffbb4f" stroke="#ffbb4f"/><path d="M385,281L523,391L558,192Z" fill="#ffc35a" stroke="#ffc35a"/><path d="M558,192L523,391L681,281Z" fill="#ffba4b" stroke="#ffba4b"/><path d="M681,281L523,391L689,402Z" fill="#ffa732" stroke="#ffa732"/><path d="M681,281L689,402L776,319Z" fill="#fca42c" stroke="#fca42c"/><path d="M681,281L776,319L855,208Z" fill="#f9ae41" stroke="#f9ae41"/><path d="M855,208L776,319L954,333Z" fill="#f4a237" stroke="#f4a237"/><path d="M855,208L954,333L979,250Z" fill="#f1a13c" stroke="#f1a13c"/><path d="M979,250L954,333L1124,405Z" fill="#eb8b22" stroke="#eb8b22"/><path d="M979,250L1124,405L1174,282Z" fill="#e48a26" stroke="#e48a26"/><path d="M1174,282L1124,405L1295,433Z" fill="#da771b" stroke="#da771b"/><path d="M1174,282L1295,433L1267,241Z" fill="#d67f22" stroke="#d67f22"/><path d="M1267,241L1295,433L1408,346Z" fill="#ce761b" stroke="#ce761b"/><path d="M1267,241L1408,346L1391,182Z" fill="#cb8637" stroke="#cb8637"/><path d="M1391,182L1408,346L1562,219Z" fill="#c28138" stroke="#c28138"/><path d="M1562,219L1408,346L1629,317Z" fill="#ba7227" stroke="#ba7227"/><path d="M1562,219L1629,317L1710,252Z" fill="#b17233" stroke="#b17233"/><path d="M1710,252L1629,317L1783,340Z" fill="#aa6524" stroke="#aa6524"/><path d="M1710,252L1783,340L1850,316Z" fill="#a36224" stroke="#a36224"/><path d="M1924,186L1850,316L1895,509Z" fill="#985b19" stroke="#985b19"/><path d="M-66,431L-98,791L-50,622Z" fill="#e7a783" stroke="#e7a783"/><path d="M-66,431L-50,622L-34,581Z" fill="#f6b281" stroke="#f6b281"/><path d="M-66,431L-34,581L100,391Z" fill="#ffbf7d" stroke="#ffbf7d"/><path d="M100,391L-34,581L104,585Z" fill="#fcb376" stroke="#fcb376"/><path d="M100,391L104,585L189,517Z" fill="#ffb26e" stroke="#ffb26e"/><path d="M100,391L189,517L169,366Z" fill="#ffc06f" stroke="#ffc06f"/><path d="M169,366L189,517L417,370Z" fill="#ffbb64" stroke="#ffbb64"/><path d="M417,370L189,517L434,485Z" fill="#ffad59" stroke="#ffad59"/><path d="M417,370L434,485L523,391Z" fill="#ffac4a" stroke="#ffac4a"/><path d="M523,391L434,485L471,495Z" fill="#ffa146" stroke="#ffa146"/><path d="M523,391L471,495L638,580Z" fill="#ff943a" stroke="#ff943a"/><path d="M523,391L638,580L689,402Z" fill="#ff9431" stroke="#ff9431"/><path d="M689,402L638,580L796,537Z" fill="#fc8225" stroke="#fc8225"/><path d="M689,402L796,537L776,319Z" fill="#fa8f26" stroke="#fa8f26"/><path d="M776,319L796,537L954,333Z" fill="#f58d24" stroke="#f58d24"/><path d="M954,333L796,537L1021,505Z" fill="#f1791e" stroke="#f1791e"/><path d="M954,333L1021,505L1124,405Z" fill="#ea791c" stroke="#ea791c"/><path d="M1124,405L1021,505L1101,497Z" fill="#e56b19" stroke="#e56b19"/><path d="M1124,405L1101,497L1295,433Z" fill="#dd6a19" stroke="#dd6a19"/><path d="M1295,433L1101,497L1321,547Z" fill="#d65b16" stroke="#d65b16"/><path d="M1295,433L1321,547L1476,499Z" fill="#ca5314" stroke="#ca5314"/><path d="M1295,433L1476,499L1408,346Z" fill="#c85f16" stroke="#c85f16"/><path d="M1408,346L1476,499L1629,317Z" fill="#bd6017" stroke="#bd6017"/><path d="M1629,317L1476,499L1612,490Z" fill="#b75215" stroke="#b75215"/><path d="M1629,317L1612,490L1783,340Z" fill="#ad5617" stroke="#ad5617"/><path d="M1783,340L1612,490L1730,530Z" fill="#aa4514" stroke="#aa4514"/><path d="M1783,340L1730,530L1895,509Z" fill="#a14214" stroke="#a14214"/><path d="M1783,340L1895,509L1850,316Z" fill="#9d5017" stroke="#9d5017"/><path d="M-34,581L-50,622L77,701Z" fill="#e2a47c" stroke="#e2a47c"/><path d="M-34,581L77,701L104,585Z" fill="#e5a377" stroke="#e5a377"/><path d="M104,585L77,701L277,707Z" fill="#dc976c" stroke="#dc976c"/><path d="M104,585L277,707L189,517Z" fill="#e99e68" stroke="#e99e68"/><path d="M189,517L277,707L333,672Z" fill="#e29560" stroke="#e29560"/><path d="M189,517L333,672L434,485Z" fill="#f39e5b" stroke="#f39e5b"/><path d="M434,485L333,672L471,495Z" fill="#f4964d" stroke="#f4964d"/><path d="M471,495L333,672L497,730Z" fill="#e2884a" stroke="#e2884a"/><path d="M471,495L497,730L631,641Z" fill="#e5803b" stroke="#e5803b"/><path d="M471,495L631,641L638,580Z" fill="#f08434" stroke="#f08434"/><path d="M638,580L631,641L796,537Z" fill="#eb7726" stroke="#eb7726"/><path d="M796,537L631,641L882,673Z" fill="#e06b22" stroke="#e06b22"/><path d="M796,537L882,673L950,665Z" fill="#d9611e" stroke="#d9611e"/><path d="M796,537L950,665L1021,505Z" fill="#e2661c" stroke="#e2661c"/><path d="M1021,505L950,665L1088,699Z" fill="#d15519" stroke="#d15519"/><path d="M1021,505L1088,699L1101,497Z" fill="#d85a18" stroke="#d85a18"/><path d="M1101,497L1088,699L1303,689Z" fill="#c24b16" stroke="#c24b16"/><path d="M1101,497L1303,689L1321,547Z" fill="#c54e15" stroke="#c54e15"/><path d="M1321,547L1303,689L1385,629Z" fill="#b34114" stroke="#b34114"/><path d="M1321,547L1385,629L1476,499Z" fill="#bb4713" stroke="#bb4713"/><path d="M1476,499L1385,629L1550,653Z" fill="#ac3d12" stroke="#ac3d12"/><path d="M1476,499L1550,653L1612,490Z" fill="#af3f12" stroke="#af3f12"/><path d="M1612,490L1550,653L1697,643Z" fill="#9d3312" stroke="#9d3312"/><path d="M1612,490L1697,643L1730,530Z" fill="#a13512" stroke="#a13512"/><path d="M1730,530L1697,643L1844,705Z" fill="#8a2612" stroke="#8a2612"/><path d="M1730,530L1844,705L1895,509Z" fill="#8d2d12" stroke="#8d2d12"/><path d="M1895,509L1844,705L1841,919Z" fill="#6e1912" stroke="#6e1912"/><path d="M-50,622L-98,791L77,701Z" fill="#d3997e" stroke="#d3997e"/><path d="M77,701L-98,791L37,860Z" fill="#c28d7b" stroke="#c28d7b"/><path d="M77,701L37,860L194,802Z" fill="#c18771" stroke="#c18771"/><path d="M77,701L194,802L277,707Z" fill="#cc8a69" stroke="#cc8a69"/><path d="M277,707L194,802L363,829Z" fill="#c27f5f" stroke="#c27f5f"/><path d="M277,707L363,829L333,672Z" fill="#cc825a" stroke="#cc825a"/><path d="M333,672L363,829L497,730Z" fill="#ca7a4f" stroke="#ca7a4f"/><path d="M497,730L363,829L577,854Z" fill="#bd6a43" stroke="#bd6a43"/><path d="M497,730L577,854L641,837Z" fill="#bc6035" stroke="#bc6035"/><path d="M497,730L641,837L631,641Z" fill="#cc6a33" stroke="#cc6a33"/><path d="M631,641L641,837L802,808Z" fill="#c55c25" stroke="#c55c25"/><path d="M631,641L802,808L882,673Z" fill="#cd5e22" stroke="#cd5e22"/><path d="M882,673L802,808L990,805Z" fill="#ba4b1d" stroke="#ba4b1d"/><path d="M882,673L990,805L950,665Z" fill="#c14e1b" stroke="#c14e1b"/><path d="M950,665L990,805L1088,699Z" fill="#bc4719" stroke="#bc4719"/><path d="M1088,699L990,805L1082,830Z" fill="#ac3b18" stroke="#ac3b18"/><path d="M1088,699L1082,830L1262,872Z" fill="#9e3217" stroke="#9e3217"/><path d="M1088,699L1262,872L1303,689Z" fill="#a13416" stroke="#a13416"/><path d="M1303,689L1262,872L1459,802Z" fill="#8f2714" stroke="#8f2714"/><path d="M1303,689L1459,802L1385,629Z" fill="#9c3113" stroke="#9c3113"/><path d="M1385,629L1459,802L1550,653Z" fill="#972e12" stroke="#972e12"/><path d="M1550,653L1459,802L1549,848Z" fill="#821f12" stroke="#821f12"/><path d="M1550,653L1549,848L1697,643Z" fill="#852212" stroke="#852212"/><path d="M1697,643L1549,848L1767,812Z" fill="#731512" stroke="#731512"/><path d="M1697,643L1767,812L1844,705Z" fill="#741812" stroke="#741812"/><path d="M1844,705L1767,812L1815,798Z" fill="#651012" stroke="#651012"/><path d="M1844,705L1815,798L1841,919Z" fill="#5b0a12" stroke="#5b0a12"/><path d="M-98,791L-32,971L37,860Z" fill="#ae807f" stroke="#ae807f"/><path d="M37,860L-32,971L68,984Z" fill="#a07e79" stroke="#a07e79"/><path d="M37,860L68,984L194,802Z" fill="#ac7a71" stroke="#ac7a71"/><path d="M194,802L68,984L242,1027Z" fill="#a0766a" stroke="#a0766a"/><path d="M194,802L242,1027L363,829Z" fill="#ab7160" stroke="#ab7160"/><path d="M363,829L242,1027L425,954Z" fill="#a06c58" stroke="#a06c58"/><path d="M363,829L425,954L577,854Z" fill="#ad6147" stroke="#ad6147"/><path d="M577,854L425,954L552,1029Z" fill="#9e5b3d" stroke="#9e5b3d"/><path d="M577,854L552,1029L691,925Z" fill="#a05330" stroke="#a05330"/><path d="M577,854L691,925L641,837Z" fill="#ae502c" stroke="#ae502c"/><path d="M641,837L691,925L802,808Z" fill="#af4c25" stroke="#af4c25"/><path d="M802,808L691,925L791,976Z" fill="#a24523" stroke="#a24523"/><path d="M802,808L791,976L924,1021Z" fill="#973e20" stroke="#973e20"/><path d="M802,808L924,1021L990,805Z" fill="#a0391d" stroke="#a0391d"/><path d="M990,805L924,1021L1082,830Z" fill="#993119" stroke="#993119"/><path d="M1082,830L924,1021L1162,955Z" fill="#892d18" stroke="#892d18"/><path d="M1082,830L1162,955L1262,872Z" fill="#892516" stroke="#892516"/><path d="M1262,872L1162,955L1325,967Z" fill="#782015" stroke="#782015"/><path d="M1262,872L1325,967L1459,802Z" fill="#791a14" stroke="#791a14"/><path d="M1459,802L1325,967L1454,995Z" fill="#6a1613" stroke="#6a1613"/><path d="M1459,802L1454,995L1549,848Z" fill="#6c1112" stroke="#6c1112"/><path d="M1549,848L1454,995L1614,988Z" fill="#590e12" stroke="#590e12"/><path d="M1549,848L1614,988L1767,812Z" fill="#5d0712" stroke="#5d0712"/><path d="M1767,812L1614,988L1725,1024Z" fill="#4b0312" stroke="#4b0312"/><path d="M1767,812L1725,1024L1841,919Z" fill="#480012" stroke="#480012"/><path d="M1767,812L1841,919L1815,798Z" fill="#560512" stroke="#560512"/><path d="M-32,971L242,1027L68,984Z" fill="#947b72" stroke="#947b72"/><path d="M242,1027L552,1029L425,954Z" fill="#91664e" stroke="#91664e"/><path d="M552,1029L1725,1024L924,1021Z" fill="#752c18" stroke="#752c18"/><path d="M552,1029L924,1021L791,976Z" fill="#8c4623" stroke="#8c4623"/><path d="M552,1029L791,976L691,925Z" fill="#974c26" stroke="#974c26"/><path d="M924,1021L1725,1024L1454,995Z" fill="#5a1913" stroke="#5a1913"/><path d="M924,1021L1454,995L1325,967Z" fill="#6b2115" stroke="#6b2115"/><path d="M924,1021L1325,967L1162,955Z" fill="#772717" stroke="#772717"/><path d="M1454,995L1725,1024L1614,988Z" fill="#470a12" stroke="#470a12"/></g></svg>