<svg width="1680" height="837" xmlns="http://www.w3.org/2000/svg"><g><path d="M-29,-16L-71,17L31,111Z" fill="#c92835" stroke="#c92835"/><path d="M-29,-16L31,111L29,-29Z" fill="#c92835" stroke="#c92835"/><path d="M-29,-16L29,-29L211,-134Z" fill="#bd1829" stroke="#bd1829"/><path d="M29,-29L31,111L215,42Z" fill="#d43d3f" stroke="#d43d3f"/><path d="M29,-29L215,42L211,-134Z" fill="#c82934" stroke="#c82934"/><path d="M211,-134L215,42L350,-39Z" fill="#d0393e" stroke="#d0393e"/><path d="M211,-134L350,-39L494,-105Z" fill="#cc4840" stroke="#cc4840"/><path d="M211,-134L494,-105L1254,-86Z" fill="#d06e6a" stroke="#d06e6a"/><path d="M350,-39L215,42L416,32Z" fill="#e05952" stroke="#e05952"/><path d="M350,-39L416,32L494,-105Z" fill="#dd5653" stroke="#dd5653"/><path d="M494,-105L416,32L487,115Z" fill="#e87065" stroke="#e87065"/><path d="M494,-105L487,115L686,51Z" fill="#eb7d75" stroke="#eb7d75"/><path d="M494,-105L686,51L694,-61Z" fill="#e17075" stroke="#e17075"/><path d="M494,-105L694,-61L789,-75Z" fill="#d56e71" stroke="#d56e71"/><path d="M494,-105L789,-75L1254,-86Z" fill="#c07280" stroke="#c07280"/><path d="M694,-61L686,51L789,-75Z" fill="#d97781" stroke="#d97781"/><path d="M789,-75L686,51L798,129Z" fill="#e28f91" stroke="#e28f91"/><path d="M789,-75L798,129L945,-16Z" fill="#d58994" stroke="#d58994"/><path d="M789,-75L945,-16L1097,-26Z" fill="#bb6e86" stroke="#bb6e86"/><path d="M789,-75L1097,-26L1254,-86Z" fill="#a7637d" stroke="#a7637d"/><path d="M945,-16L798,129L856,207Z" fill="#e4aba6" stroke="#e4aba6"/><path d="M945,-16L856,207L926,225Z" fill="#deb4ad" stroke="#deb4ad"/><path d="M945,-16L926,225L1020,28Z" fill="#d0999c" stroke="#d0999c"/><path d="M945,-16L1020,28L1097,-26Z" fill="#b77489" stroke="#b77489"/><path d="M1097,-26L1020,28L1073,29Z" fill="#b3778a" stroke="#b3778a"/><path d="M1097,-26L1073,29L1263,109Z" fill="#a9778a" stroke="#a9778a"/><path d="M1097,-26L1263,109L1254,-86Z" fill="#96617f" stroke="#96617f"/><path d="M1254,-86L1263,109L1404,55Z" fill="#8d607e" stroke="#8d607e"/><path d="M1254,-86L1404,55L1431,-44Z" fill="#7e4771" stroke="#7e4771"/><path d="M1254,-86L1431,-44L1722,-56Z" fill="#6e3364" stroke="#6e3364"/><path d="M1254,-86L1722,-56L1881,-51Z" fill="#62235b" stroke="#62235b"/><path d="M1431,-44L1404,55L1578,-25Z" fill="#7a436f" stroke="#7a436f"/><path d="M1431,-44L1578,-25L1722,-56Z" fill="#6a2a62" stroke="#6a2a62"/><path d="M1578,-25L1404,55L1614,90Z" fill="#7e4d74" stroke="#7e4d74"/><path d="M1578,-25L1614,90L1722,-56Z" fill="#6e3467" stroke="#6e3467"/><path d="M1722,-56L1614,90L1752,76Z" fill="#723b6a" stroke="#723b6a"/><path d="M1722,-56L1752,76L1881,-51Z" fill="#681f5d" stroke="#681f5d"/><path d="M1881,-51L1752,76L1911,67Z" fill="#712861" stroke="#712861"/><path d="M-71,17L-90,236L31,111Z" fill="#d54445" stroke="#d54445"/><path d="M31,111L-90,236L68,187Z" fill="#d9635a" stroke="#d9635a"/><path d="M31,111L68,187L215,42Z" fill="#e25b4f" stroke="#e25b4f"/><path d="M215,42L68,187L245,270Z" fill="#e87c64" stroke="#e87c64"/><path d="M215,42L245,270L421,223Z" fill="#f19475" stroke="#f19475"/><path d="M215,42L421,223L416,32Z" fill="#f47e66" stroke="#f47e66"/><path d="M416,32L421,223L487,115Z" fill="#fa9678" stroke="#fa9678"/><path d="M487,115L421,223L578,194Z" fill="#fbb292" stroke="#fbb292"/><path d="M487,115L578,194L686,51Z" fill="#fda78f" stroke="#fda78f"/><path d="M686,51L578,194L712,185Z" fill="#fbb7a0" stroke="#fbb7a0"/><path d="M686,51L712,185L798,129Z" fill="#f4b0a1" stroke="#f4b0a1"/><path d="M798,129L712,185L856,207Z" fill="#eec6b6" stroke="#eec6b6"/><path d="M1020,28L926,225L1101,257Z" fill="#ceb8b2" stroke="#ceb8b2"/><path d="M1020,28L1101,257L1073,29Z" fill="#c69a9c" stroke="#c69a9c"/><path d="M1073,29L1101,257L1263,109Z" fill="#b79b9f" stroke="#b79b9f"/><path d="M1263,109L1101,257L1335,190Z" fill="#a6a6aa" stroke="#a6a6aa"/><path d="M1263,109L1335,190L1404,55Z" fill="#9b8090" stroke="#9b8090"/><path d="M1404,55L1335,190L1423,229Z" fill="#978a99" stroke="#978a99"/><path d="M1404,55L1423,229L1614,90Z" fill="#8f738a" stroke="#8f738a"/><path d="M1614,90L1423,229L1537,255Z" fill="#8c899b" stroke="#8c899b"/><path d="M1614,90L1537,255L1697,236Z" fill="#848097" stroke="#848097"/><path d="M1614,90L1697,236L1752,76Z" fill="#806081" stroke="#806081"/><path d="M1752,76L1697,236L1851,242Z" fill="#806c8c" stroke="#806c8c"/><path d="M1752,76L1851,242L1911,67Z" fill="#804e77" stroke="#804e77"/><path d="M1911,67L1851,242L1912,347Z" fill="#806b90" stroke="#806b90"/><path d="M-90,236L-134,833L-65,559Z" fill="#9f708b" stroke="#9f708b"/><path d="M-90,236L-65,559L-58,346Z" fill="#d1808c" stroke="#d1808c"/><path d="M-90,236L-58,346L68,187Z" fill="#d67774" stroke="#d67774"/><path d="M68,187L-58,346L121,345Z" fill="#dc8d87" stroke="#dc8d87"/><path d="M68,187L121,345L245,270Z" fill="#e59886" stroke="#e59886"/><path d="M245,270L121,345L178,374Z" fill="#e8ab9c" stroke="#e8ab9c"/><path d="M245,270L178,374L417,428Z" fill="#efbbaa" stroke="#efbbaa"/><path d="M245,270L417,428L421,223Z" fill="#f6c7ae" stroke="#f6c7ae"/><path d="M421,223L417,428L469,395Z" fill="#f9d4bd" stroke="#f9d4bd"/><path d="M421,223L469,395L578,194Z" fill="#fbcfb2" stroke="#fbcfb2"/><path d="M578,194L469,395L618,365Z" fill="#fde4ce" stroke="#fde4ce"/><path d="M578,194L618,365L712,185Z" fill="#fedbc1" stroke="#fedbc1"/><path d="M712,185L618,365L798,333Z" fill="#f6eada" stroke="#f6eada"/><path d="M712,185L798,333L856,207Z" fill="#eeddcd" stroke="#eeddcd"/><path d="M856,207L798,333L926,225Z" fill="#e5e0d7" stroke="#e5e0d7"/><path d="M926,225L798,333L959,318Z" fill="#e0e8e4" stroke="#e0e8e4"/><path d="M926,225L959,318L1101,257Z" fill="#d1d9d6" stroke="#d1d9d6"/><path d="M1101,257L959,318L1103,417Z" fill="#c7e2e7" stroke="#c7e2e7"/><path d="M1101,257L1103,417L1263,415Z" fill="#b3d6e3" stroke="#b3d6e3"/><path d="M1101,257L1263,415L1335,190Z" fill="#a6c5cf" stroke="#a6c5cf"/><path d="M1335,190L1263,415L1423,229Z" fill="#9bb7c6" stroke="#9bb7c6"/><path d="M1423,229L1263,415L1422,425Z" fill="#97bed6" stroke="#97bed6"/><path d="M1423,229L1422,425L1537,255Z" fill="#91b1c9" stroke="#91b1c9"/><path d="M1537,255L1422,425L1596,374Z" fill="#8baecd" stroke="#8baecd"/><path d="M1537,255L1596,374L1697,236Z" fill="#859dbb" stroke="#859dbb"/><path d="M1697,236L1596,374L1693,421Z" fill="#809ec5" stroke="#809ec5"/><path d="M1697,236L1693,421L1851,242Z" fill="#8091b8" stroke="#8091b8"/><path d="M1851,242L1693,421L1912,347Z" fill="#7f8dbc" stroke="#7f8dbc"/><path d="M-58,346L-65,559L116,567Z" fill="#bc8495" stroke="#bc8495"/><path d="M-58,346L116,567L121,345Z" fill="#da969a" stroke="#da969a"/><path d="M121,345L116,567L178,374Z" fill="#dea2a0" stroke="#dea2a0"/><path d="M178,374L116,567L218,492Z" fill="#cfa4a3" stroke="#cfa4a3"/><path d="M178,374L218,492L343,502Z" fill="#ddb2ab" stroke="#ddb2ab"/><path d="M178,374L343,502L417,428Z" fill="#e9bfb3" stroke="#e9bfb3"/><path d="M417,428L343,502L574,527Z" fill="#dfcfc5" stroke="#dfcfc5"/><path d="M417,428L574,527L469,395Z" fill="#edd8cc" stroke="#edd8cc"/><path d="M469,395L574,527L618,365Z" fill="#f6e2d7" stroke="#f6e2d7"/><path d="M618,365L574,527L637,545Z" fill="#e5e5e0" stroke="#e5e5e0"/><path d="M618,365L637,545L798,333Z" fill="#f6efe8" stroke="#f6efe8"/><path d="M798,333L637,545L885,467Z" fill="#e2eef1" stroke="#e2eef1"/><path d="M798,333L885,467L959,318Z" fill="#e1eff2" stroke="#e1eff2"/><path d="M959,318L885,467L945,497Z" fill="#d5eaf4" stroke="#d5eaf4"/><path d="M959,318L945,497L1103,417Z" fill="#cde6f0" stroke="#cde6f0"/><path d="M1103,417L945,497L1132,545Z" fill="#abdbee" stroke="#abdbee"/><path d="M1103,417L1132,545L1263,415Z" fill="#a1d0e7" stroke="#a1d0e7"/><path d="M1263,415L1132,545L1319,527Z" fill="#87c4e3" stroke="#87c4e3"/><path d="M1263,415L1319,527L1422,425Z" fill="#8bbedd" stroke="#8bbedd"/><path d="M1422,425L1319,527L1422,544Z" fill="#77b4da" stroke="#77b4da"/><path d="M1422,425L1422,544L1596,374Z" fill="#82afd5" stroke="#82afd5"/><path d="M1596,374L1422,544L1626,582Z" fill="#6aa2d1" stroke="#6aa2d1"/><path d="M1596,374L1626,582L1693,421Z" fill="#719dcd" stroke="#719dcd"/><path d="M1693,421L1626,582L1764,566Z" fill="#5791c9" stroke="#5791c9"/><path d="M1693,421L1764,566L1835,529Z" fill="#5e8bc6" stroke="#5e8bc6"/><path d="M1693,421L1835,529L1912,347Z" fill="#788cc3" stroke="#788cc3"/><path d="M1912,347L1835,529L1839,734Z" fill="#517bbf" stroke="#517bbf"/><path d="M1912,347L1839,734L1837,999Z" fill="#1b50ac" stroke="#1b50ac"/><path d="M-65,559L-134,833L-24,711Z" fill="#6c457a" stroke="#6c457a"/><path d="M-65,559L-24,711L116,567Z" fill="#896a8c" stroke="#896a8c"/><path d="M116,567L-24,711L109,709Z" fill="#80668b" stroke="#80668b"/><path d="M116,567L109,709L188,666Z" fill="#897693" stroke="#897693"/><path d="M116,567L188,666L218,492Z" fill="#a8919e" stroke="#a8919e"/><path d="M218,492L188,666L343,502Z" fill="#b8a4a8" stroke="#b8a4a8"/><path d="M343,502L188,666L395,648Z" fill="#a49eaa" stroke="#a49eaa"/><path d="M343,502L395,648L574,527Z" fill="#c2c0c0" stroke="#c2c0c0"/><path d="M574,527L395,648L515,714Z" fill="#a3b3c2" stroke="#a3b3c2"/><path d="M574,527L515,714L644,658Z" fill="#a5bdcf" stroke="#a5bdcf"/><path d="M574,527L644,658L637,545Z" fill="#bed2dc" stroke="#bed2dc"/><path d="M637,545L644,658L782,627Z" fill="#a9cce0" stroke="#a9cce0"/><path d="M637,545L782,627L885,467Z" fill="#bde0ee" stroke="#bde0ee"/><path d="M885,467L782,627L945,497Z" fill="#b8e4f5" stroke="#b8e4f5"/><path d="M945,497L782,627L939,674Z" fill="#96cfee" stroke="#96cfee"/><path d="M945,497L939,674L1098,678Z" fill="#7fc2e7" stroke="#7fc2e7"/><path d="M945,497L1098,678L1132,545Z" fill="#88c9e9" stroke="#88c9e9"/><path d="M1132,545L1098,678L1230,696Z" fill="#5babdc" stroke="#5babdc"/><path d="M1132,545L1230,696L1319,527Z" fill="#61b0dc" stroke="#61b0dc"/><path d="M1319,527L1230,696L1467,687Z" fill="#4296d1" stroke="#4296d1"/><path d="M1319,527L1467,687L1422,544Z" fill="#519ed3" stroke="#519ed3"/><path d="M1422,544L1467,687L1579,661Z" fill="#3788c9" stroke="#3788c9"/><path d="M1422,544L1579,661L1626,582Z" fill="#418cca" stroke="#418cca"/><path d="M1626,582L1579,661L1765,623Z" fill="#2c78c1" stroke="#2c78c1"/><path d="M1626,582L1765,623L1764,566Z" fill="#397bc1" stroke="#397bc1"/><path d="M1764,566L1765,623L1835,529Z" fill="#4179bf" stroke="#4179bf"/><path d="M1835,529L1765,623L1839,734Z" fill="#2866b8" stroke="#2866b8"/><path d="M-24,711L-134,833L69,766Z" fill="#633a75" stroke="#633a75"/><path d="M-24,711L69,766L109,709Z" fill="#725381" stroke="#725381"/><path d="M109,709L69,766L225,795Z" fill="#735984" stroke="#735984"/><path d="M109,709L225,795L188,666Z" fill="#7e698b" stroke="#7e698b"/><path d="M188,666L225,795L326,795Z" fill="#7d6e8f" stroke="#7d6e8f"/><path d="M188,666L326,795L395,648Z" fill="#8b849d" stroke="#8b849d"/><path d="M395,648L326,795L515,714Z" fill="#9091a9" stroke="#9091a9"/><path d="M515,714L326,795L555,882Z" fill="#8285a7" stroke="#8285a7"/><path d="M515,714L555,882L639,803Z" fill="#8491b7" stroke="#8491b7"/><path d="M515,714L639,803L644,658Z" fill="#93a8c6" stroke="#93a8c6"/><path d="M644,658L639,803L782,627Z" fill="#93b5d5" stroke="#93b5d5"/><path d="M782,627L639,803L797,863Z" fill="#80a5d0" stroke="#80a5d0"/><path d="M782,627L797,863L939,674Z" fill="#7eb2e0" stroke="#7eb2e0"/><path d="M939,674L797,863L941,818Z" fill="#6a9ed6" stroke="#6a9ed6"/><path d="M939,674L941,818L1098,678Z" fill="#67a6d9" stroke="#67a6d9"/><path d="M1098,678L941,818L1169,817Z" fill="#5293d0" stroke="#5293d0"/><path d="M1098,678L1169,817L1230,696Z" fill="#4792cf" stroke="#4792cf"/><path d="M1230,696L1169,817L1326,848Z" fill="#2e7ac2" stroke="#2e7ac2"/><path d="M1230,696L1326,848L1467,687Z" fill="#2d7bc2" stroke="#2d7bc2"/><path d="M1467,687L1326,848L1485,868Z" fill="#1a63b6" stroke="#1a63b6"/><path d="M1467,687L1485,868L1544,822Z" fill="#165db3" stroke="#165db3"/><path d="M1467,687L1544,822L1579,661Z" fill="#216cba" stroke="#216cba"/><path d="M1579,661L1544,822L1743,845Z" fill="#0f54ae" stroke="#0f54ae"/><path d="M1579,661L1743,845L1765,623Z" fill="#185eb3" stroke="#185eb3"/><path d="M1765,623L1743,845L1824,773Z" fill="#114baa" stroke="#114baa"/><path d="M1765,623L1824,773L1839,734Z" fill="#1851ad" stroke="#1851ad"/><path d="M1839,734L1824,773L1837,999Z" fill="#002e9b" stroke="#002e9b"/><path d="M-134,833L-109,960L24,997Z" fill="#530a5c" stroke="#530a5c"/><path d="M-134,833L24,997L69,766Z" fill="#582469" stroke="#582469"/><path d="M69,766L24,997L241,916Z" fill="#633270" stroke="#633270"/><path d="M69,766L241,916L225,795Z" fill="#6a4f7e" stroke="#6a4f7e"/><path d="M225,795L241,916L326,795Z" fill="#6f5b86" stroke="#6f5b86"/><path d="M326,795L241,916L406,990Z" fill="#735485" stroke="#735485"/><path d="M326,795L406,990L555,882Z" fill="#7a6894" stroke="#7a6894"/><path d="M555,882L406,990L475,1029Z" fill="#7c5a92" stroke="#7c5a92"/><path d="M555,882L475,1029L670,923Z" fill="#7d6ba3" stroke="#7d6ba3"/><path d="M555,882L670,923L639,803Z" fill="#7f86b6" stroke="#7f86b6"/><path d="M639,803L670,923L797,863Z" fill="#778ac0" stroke="#778ac0"/><path d="M797,863L670,923L819,1008Z" fill="#717abd" stroke="#717abd"/><path d="M797,863L819,1008L979,980Z" fill="#6575c1" stroke="#6575c1"/><path d="M797,863L979,980L941,818Z" fill="#5f82c7" stroke="#5f82c7"/><path d="M941,818L979,980L1169,817Z" fill="#4c7dc4" stroke="#4c7dc4"/><path d="M1169,817L979,980L1159,993Z" fill="#3f66b8" stroke="#3f66b8"/><path d="M1169,817L1159,993L1265,1014Z" fill="#2d58b0" stroke="#2d58b0"/><path d="M1169,817L1265,1014L1326,848Z" fill="#235eb3" stroke="#235eb3"/><path d="M1326,848L1265,1014L1417,1032Z" fill="#1c42a5" stroke="#1c42a5"/><path d="M1326,848L1417,1032L1485,868Z" fill="#1647a8" stroke="#1647a8"/><path d="M1485,868L1417,1032L1613,1017Z" fill="#0e309b" stroke="#0e309b"/><path d="M1485,868L1613,1017L1544,822Z" fill="#0a3ba2" stroke="#0a3ba2"/><path d="M1544,822L1613,1017L1743,845Z" fill="#04349e" stroke="#04349e"/><path d="M1743,845L1613,1017L1678,1025Z" fill="#001e92" stroke="#001e92"/><path d="M1743,845L1678,1025L1837,999Z" fill="#00178f" stroke="#00178f"/><path d="M1743,845L1837,999L1824,773Z" fill="#002898" stroke="#002898"/><path d="M24,997L475,1029L406,990Z" fill="#723f74" stroke="#723f74"/><path d="M24,997L406,990L241,916Z" fill="#6c326f" stroke="#6c326f"/><path d="M475,1029L1417,1032L819,1008Z" fill="#5f6eb5" stroke="#5f6eb5"/><path d="M475,1029L819,1008L670,923Z" fill="#7c6eab" stroke="#7c6eab"/><path d="M819,1008L1417,1032L1265,1014Z" fill="#3355a8" stroke="#3355a8"/><path d="M819,1008L1265,1014L1159,993Z" fill="#435faf" stroke="#435faf"/><path d="M819,1008L1159,993L979,980Z" fill="#5368b6" stroke="#5368b6"/><path d="M1417,1032L1678,1025L1613,1017Z" fill="#092990" stroke="#092990"/></g></svg>