<svg width="1680" height="837" xmlns="http://www.w3.org/2000/svg"><g><path d="M-92,-98L-101,272L-43,89Z" fill="#c9721f" stroke="#c9721f"/><path d="M-92,-98L-43,89L37,-110Z" fill="#bb500c" stroke="#bb500c"/><path d="M37,-110L-43,89L22,133Z" fill="#ca6d1b" stroke="#ca6d1b"/><path d="M37,-110L22,133L175,93Z" fill="#d37822" stroke="#d37822"/><path d="M37,-110L175,93L237,-38Z" fill="#d26f22" stroke="#d26f22"/><path d="M37,-110L237,-38L378,-52Z" fill="#d26821" stroke="#d26821"/><path d="M37,-110L378,-52L486,-87Z" fill="#d76e2a" stroke="#d76e2a"/><path d="M37,-110L486,-87L1008,-117Z" fill="#d97e53" stroke="#d97e53"/><path d="M37,-110L1008,-117L1451,-130Z" fill="#c57c75" stroke="#c57c75"/><path d="M237,-38L175,93L430,125Z" fill="#ec993b" stroke="#ec993b"/><path d="M237,-38L430,125L378,-52Z" fill="#e79142" stroke="#e79142"/><path d="M378,-52L430,125L569,32Z" fill="#eda55c" stroke="#eda55c"/><path d="M378,-52L569,32L486,-87Z" fill="#e29056" stroke="#e29056"/><path d="M486,-87L569,32L686,-59Z" fill="#e39969" stroke="#e39969"/><path d="M486,-87L686,-59L801,-65Z" fill="#d98d6b" stroke="#d98d6b"/><path d="M486,-87L801,-65L1008,-117Z" fill="#ce8673" stroke="#ce8673"/><path d="M686,-59L569,32L732,59Z" fill="#e4a778" stroke="#e4a778"/><path d="M686,-59L732,59L801,-65Z" fill="#da9c7b" stroke="#da9c7b"/><path d="M801,-65L732,59L882,112Z" fill="#dfae89" stroke="#dfae89"/><path d="M801,-65L882,112L919,103Z" fill="#dbae8d" stroke="#dbae8d"/><path d="M801,-65L919,103L1008,-117Z" fill="#cb907e" stroke="#cb907e"/><path d="M1008,-117L919,103L1091,97Z" fill="#c8947f" stroke="#c8947f"/><path d="M1008,-117L1091,97L1164,-64Z" fill="#b77772" stroke="#b77772"/><path d="M1008,-117L1164,-64L1269,-79Z" fill="#a75b64" stroke="#a75b64"/><path d="M1008,-117L1269,-79L1451,-130Z" fill="#984356" stroke="#984356"/><path d="M1164,-64L1091,97L1288,82Z" fill="#b67d72" stroke="#b67d72"/><path d="M1164,-64L1288,82L1269,-79Z" fill="#a55f64" stroke="#a55f64"/><path d="M1269,-79L1288,82L1423,33Z" fill="#a05a5f" stroke="#a05a5f"/><path d="M1269,-79L1423,33L1451,-130Z" fill="#8e394f" stroke="#8e394f"/><path d="M1451,-130L1423,33L1523,-109Z" fill="#822645" stroke="#822645"/><path d="M1451,-130L1523,-109L1762,-96Z" fill="#6e1132" stroke="#6e1132"/><path d="M1451,-130L1762,-96L1831,-92Z" fill="#621329" stroke="#621329"/><path d="M1523,-109L1423,33L1587,112Z" fill="#89394c" stroke="#89394c"/><path d="M1523,-109L1587,112L1695,66Z" fill="#7f3c44" stroke="#7f3c44"/><path d="M1523,-109L1695,66L1762,-96Z" fill="#6e2633" stroke="#6e2633"/><path d="M1762,-96L1695,66L1831,-92Z" fill="#65282a" stroke="#65282a"/><path d="M1831,-92L1695,66L1900,30Z" fill="#6b352b" stroke="#6b352b"/><path d="M-43,89L-101,272L22,133Z" fill="#d58d33" stroke="#d58d33"/><path d="M22,133L-101,272L93,273Z" fill="#daa155" stroke="#daa155"/><path d="M22,133L93,273L194,179Z" fill="#e5a750" stroke="#e5a750"/><path d="M22,133L194,179L175,93Z" fill="#e79d36" stroke="#e79d36"/><path d="M175,93L194,179L430,125Z" fill="#f6ae44" stroke="#f6ae44"/><path d="M430,125L194,179L397,275Z" fill="#fac56e" stroke="#fac56e"/><path d="M430,125L397,275L493,172Z" fill="#fccf82" stroke="#fccf82"/><path d="M430,125L493,172L569,32Z" fill="#f9c170" stroke="#f9c170"/><path d="M569,32L493,172L729,234Z" fill="#fcd288" stroke="#fcd288"/><path d="M569,32L729,234L732,59Z" fill="#f2c688" stroke="#f2c688"/><path d="M732,59L729,234L882,112Z" fill="#efcd96" stroke="#efcd96"/><path d="M882,112L729,234L884,205Z" fill="#ecd8b1" stroke="#ecd8b1"/><path d="M882,112L884,205L919,103Z" fill="#e6c798" stroke="#e6c798"/><path d="M919,103L884,205L921,240Z" fill="#e4cfad" stroke="#e4cfad"/><path d="M919,103L921,240L1091,97Z" fill="#dcbd95" stroke="#dcbd95"/><path d="M1091,97L921,240L1110,229Z" fill="#d5bea6" stroke="#d5bea6"/><path d="M1091,97L1110,229L1288,82Z" fill="#c69f83" stroke="#c69f83"/><path d="M1288,82L1110,229L1318,254Z" fill="#be9d94" stroke="#be9d94"/><path d="M1288,82L1318,254L1403,188Z" fill="#b28883" stroke="#b28883"/><path d="M1288,82L1403,188L1423,33Z" fill="#a76e68" stroke="#a76e68"/><path d="M1423,33L1403,188L1587,112Z" fill="#9d5f5f" stroke="#9d5f5f"/><path d="M1587,112L1403,188L1559,228Z" fill="#9b6970" stroke="#9b6970"/><path d="M1587,112L1559,228L1756,187Z" fill="#8d6964" stroke="#8d6964"/><path d="M1587,112L1756,187L1695,66Z" fill="#855c4a" stroke="#855c4a"/><path d="M1695,66L1756,187L1900,30Z" fill="#79533b" stroke="#79533b"/><path d="M1900,30L1756,187L1834,232Z" fill="#806342" stroke="#806342"/><path d="M1900,30L1834,232L1930,366Z" fill="#80715a" stroke="#80715a"/><path d="M-101,272L-99,672L-71,478Z" fill="#c18f7b" stroke="#c18f7b"/><path d="M-101,272L-71,478L-41,378Z" fill="#d1a27a" stroke="#d1a27a"/><path d="M-101,272L-41,378L93,273Z" fill="#d7aa72" stroke="#d7aa72"/><path d="M93,273L-41,378L103,387Z" fill="#dfb37e" stroke="#dfb37e"/><path d="M93,273L103,387L189,425Z" fill="#e7bd89" stroke="#e7bd89"/><path d="M93,273L189,425L194,179Z" fill="#ebc182" stroke="#ebc182"/><path d="M194,179L189,425L397,275Z" fill="#f6cf8d" stroke="#f6cf8d"/><path d="M397,275L189,425L353,414Z" fill="#f9d5a0" stroke="#f9d5a0"/><path d="M397,275L353,414L478,387Z" fill="#fbdfb3" stroke="#fbdfb3"/><path d="M397,275L478,387L493,172Z" fill="#fce4b1" stroke="#fce4b1"/><path d="M493,172L478,387L670,345Z" fill="#feeec8" stroke="#feeec8"/><path d="M493,172L670,345L729,234Z" fill="#fae8c0" stroke="#fae8c0"/><path d="M729,234L670,345L816,330Z" fill="#f3eedc" stroke="#f3eedc"/><path d="M729,234L816,330L884,205Z" fill="#eee8d4" stroke="#eee8d4"/><path d="M884,205L816,330L921,240Z" fill="#e8e4d5" stroke="#e8e4d5"/><path d="M921,240L816,330L963,424Z" fill="#e5e5e5" stroke="#e5e5e5"/><path d="M921,240L963,424L1110,229Z" fill="#dad7d9" stroke="#dad7d9"/><path d="M1110,229L963,424L1150,346Z" fill="#d1cdd9" stroke="#d1cdd9"/><path d="M1110,229L1150,346L1318,254Z" fill="#c3b9c5" stroke="#c3b9c5"/><path d="M1318,254L1150,346L1256,363Z" fill="#bdb0c7" stroke="#bdb0c7"/><path d="M1318,254L1256,363L1463,335Z" fill="#b09dbb" stroke="#b09dbb"/><path d="M1318,254L1463,335L1403,188Z" fill="#aa90a7" stroke="#aa90a7"/><path d="M1403,188L1463,335L1559,228Z" fill="#a17f9a" stroke="#a17f9a"/><path d="M1559,228L1463,335L1538,339Z" fill="#9b80a7" stroke="#9b80a7"/><path d="M1559,228L1538,339L1744,344Z" fill="#8f809e" stroke="#8f809e"/><path d="M1559,228L1744,344L1756,187Z" fill="#867a86" stroke="#867a86"/><path d="M1756,187L1744,344L1834,232Z" fill="#807a7c" stroke="#807a7c"/><path d="M1834,232L1744,344L1930,366Z" fill="#808088" stroke="#808088"/><path d="M-41,378L-71,478L58,514Z" fill="#cd9d7e" stroke="#cd9d7e"/><path d="M-41,378L58,514L103,387Z" fill="#dcaf86" stroke="#dcaf86"/><path d="M103,387L58,514L189,425Z" fill="#e0b48d" stroke="#e0b48d"/><path d="M189,425L58,514L170,574Z" fill="#d2a48a" stroke="#d2a48a"/><path d="M189,425L170,574L353,414Z" fill="#e6bc97" stroke="#e6bc97"/><path d="M353,414L170,574L395,575Z" fill="#deb59d" stroke="#deb59d"/><path d="M353,414L395,575L476,544Z" fill="#e3c3b3" stroke="#e3c3b3"/><path d="M353,414L476,544L478,387Z" fill="#f4d9be" stroke="#f4d9be"/><path d="M478,387L476,544L706,482Z" fill="#f1dfd5" stroke="#f1dfd5"/><path d="M478,387L706,482L670,345Z" fill="#fbefde" stroke="#fbefde"/><path d="M670,345L706,482L816,330Z" fill="#f3eee6" stroke="#f3eee6"/><path d="M816,330L706,482L802,545Z" fill="#e7e3ed" stroke="#e7e3ed"/><path d="M816,330L802,545L963,424Z" fill="#e5e5f3" stroke="#e5e5f3"/><path d="M963,424L802,545L955,520Z" fill="#d0ccea" stroke="#d0ccea"/><path d="M963,424L955,520L1136,573Z" fill="#c1bae2" stroke="#c1bae2"/><path d="M963,424L1136,573L1150,346Z" fill="#c9c3e1" stroke="#c9c3e1"/><path d="M1150,346L1136,573L1233,502Z" fill="#b7acd7" stroke="#b7acd7"/><path d="M1150,346L1233,502L1256,363Z" fill="#c1b6d5" stroke="#c1b6d5"/><path d="M1256,363L1233,502L1454,539Z" fill="#a794c9" stroke="#a794c9"/><path d="M1256,363L1454,539L1463,335Z" fill="#ab95c4" stroke="#ab95c4"/><path d="M1463,335L1454,539L1538,339Z" fill="#9f84b9" stroke="#9f84b9"/><path d="M1538,339L1454,539L1595,511Z" fill="#8e72b3" stroke="#8e72b3"/><path d="M1538,339L1595,511L1744,344Z" fill="#8e80a9" stroke="#8e80a9"/><path d="M1744,344L1595,511L1698,511Z" fill="#7e74a3" stroke="#7e74a3"/><path d="M1744,344L1698,511L1843,486Z" fill="#78779c" stroke="#78779c"/><path d="M1744,344L1843,486L1930,366Z" fill="#808093" stroke="#808093"/><path d="M1930,366L1843,486L1931,639Z" fill="#6b6889" stroke="#6b6889"/><path d="M-71,478L-99,672L58,514Z" fill="#b27d75" stroke="#b27d75"/><path d="M58,514L-99,672L95,701Z" fill="#a26468" stroke="#a26468"/><path d="M58,514L95,701L170,574Z" fill="#b57e79" stroke="#b57e79"/><path d="M170,574L95,701L279,664Z" fill="#af7274" stroke="#af7274"/><path d="M170,574L279,664L395,575Z" fill="#c69289" stroke="#c69289"/><path d="M395,575L279,664L358,725Z" fill="#b9838a" stroke="#b9838a"/><path d="M395,575L358,725L485,724Z" fill="#b48193" stroke="#b48193"/><path d="M395,575L485,724L476,544Z" fill="#c7a0aa" stroke="#c7a0aa"/><path d="M476,544L485,724L653,631Z" fill="#c4a1b8" stroke="#c4a1b8"/><path d="M476,544L653,631L706,482Z" fill="#d8c6d5" stroke="#d8c6d5"/><path d="M706,482L653,631L802,545Z" fill="#d1c5df" stroke="#d1c5df"/><path d="M802,545L653,631L827,719Z" fill="#b7a2d0" stroke="#b7a2d0"/><path d="M802,545L827,719L972,630Z" fill="#af9ed6" stroke="#af9ed6"/><path d="M802,545L972,630L955,520Z" fill="#bdb5e3" stroke="#bdb5e3"/><path d="M955,520L972,630L1136,573Z" fill="#aea2d9" stroke="#aea2d9"/><path d="M1136,573L972,630L1080,688Z" fill="#9984c8" stroke="#9984c8"/><path d="M1136,573L1080,688L1328,717Z" fill="#8264b6" stroke="#8264b6"/><path d="M1136,573L1328,717L1233,502Z" fill="#8e76c0" stroke="#8e76c0"/><path d="M1233,502L1328,717L1454,539Z" fill="#8567b8" stroke="#8567b8"/><path d="M1454,539L1328,717L1403,727Z" fill="#673c9f" stroke="#673c9f"/><path d="M1454,539L1403,727L1522,631Z" fill="#683c9f" stroke="#683c9f"/><path d="M1454,539L1522,631L1595,511Z" fill="#7654ab" stroke="#7654ab"/><path d="M1595,511L1522,631L1733,618Z" fill="#62489a" stroke="#62489a"/><path d="M1595,511L1733,618L1698,511Z" fill="#66589d" stroke="#66589d"/><path d="M1698,511L1733,618L1843,486Z" fill="#605b95" stroke="#605b95"/><path d="M1843,486L1733,618L1931,639Z" fill="#544b85" stroke="#544b85"/><path d="M-99,672L-77,1033L-89,806Z" fill="#59202e" stroke="#59202e"/><path d="M-99,672L-89,806L51,800Z" fill="#752642" stroke="#752642"/><path d="M-99,672L51,800L95,701Z" fill="#85394f" stroke="#85394f"/><path d="M95,701L51,800L205,882Z" fill="#7c3c48" stroke="#7c3c48"/><path d="M95,701L205,882L279,664Z" fill="#92475b" stroke="#92475b"/><path d="M279,664L205,882L358,725Z" fill="#995262" stroke="#995262"/><path d="M358,725L205,882L414,802Z" fill="#8d5760" stroke="#8d5760"/><path d="M358,725L414,802L485,724Z" fill="#9e6181" stroke="#9e6181"/><path d="M485,724L414,802L553,824Z" fill="#966886" stroke="#966886"/><path d="M485,724L553,824L635,780Z" fill="#9a7098" stroke="#9a7098"/><path d="M485,724L635,780L653,631Z" fill="#ab81ac" stroke="#ab81ac"/><path d="M653,631L635,780L827,719Z" fill="#a480b7" stroke="#a480b7"/><path d="M827,719L635,780L830,827Z" fill="#8c6eac" stroke="#8c6eac"/><path d="M827,719L830,827L1034,879Z" fill="#7766a7" stroke="#7766a7"/><path d="M827,719L1034,879L972,630Z" fill="#8562b4" stroke="#8562b4"/><path d="M972,630L1034,879L1080,688Z" fill="#7f5bb0" stroke="#7f5bb0"/><path d="M1080,688L1034,879L1098,807Z" fill="#694e9e" stroke="#694e9e"/><path d="M1080,688L1098,807L1328,717Z" fill="#6d44a4" stroke="#6d44a4"/><path d="M1328,717L1098,807L1295,864Z" fill="#53318d" stroke="#53318d"/><path d="M1328,717L1295,864L1414,832Z" fill="#431e80" stroke="#431e80"/><path d="M1328,717L1414,832L1403,727Z" fill="#4d1788" stroke="#4d1788"/><path d="M1403,727L1414,832L1559,784Z" fill="#3d097a" stroke="#3d097a"/><path d="M1403,727L1559,784L1522,631Z" fill="#4c1287" stroke="#4c1287"/><path d="M1522,631L1559,784L1733,618Z" fill="#492085" stroke="#492085"/><path d="M1733,618L1559,784L1744,767Z" fill="#320c71" stroke="#320c71"/><path d="M1733,618L1744,767L1931,639Z" fill="#392171" stroke="#392171"/><path d="M1931,639L1744,767L1863,860Z" fill="#210058" stroke="#210058"/><path d="M1931,639L1863,860L1824,989Z" fill="#0c0042" stroke="#0c0042"/><path d="M-89,806L-77,1033L30,984Z" fill="#552613" stroke="#552613"/><path d="M-89,806L30,984L51,800Z" fill="#5b2c2a" stroke="#5b2c2a"/><path d="M51,800L30,984L205,882Z" fill="#64392e" stroke="#64392e"/><path d="M205,882L30,984L269,950Z" fill="#6c4328" stroke="#6c4328"/><path d="M205,882L269,950L414,802Z" fill="#795347" stroke="#795347"/><path d="M414,802L269,950L381,1010Z" fill="#7a5a48" stroke="#7a5a48"/><path d="M414,802L381,1010L503,996Z" fill="#7c6255" stroke="#7c6255"/><path d="M414,802L503,996L553,824Z" fill="#7e6971" stroke="#7e6971"/><path d="M553,824L503,996L659,933Z" fill="#7e7075" stroke="#7e7075"/><path d="M553,824L659,933L635,780Z" fill="#82708c" stroke="#82708c"/><path d="M635,780L659,933L830,827Z" fill="#7b6f94" stroke="#7b6f94"/><path d="M830,827L659,933L789,1035Z" fill="#726e84" stroke="#726e84"/><path d="M830,827L789,1035L1002,952Z" fill="#686987" stroke="#686987"/><path d="M830,827L1002,952L1034,879Z" fill="#5f5e8f" stroke="#5f5e8f"/><path d="M1034,879L1002,952L1144,968Z" fill="#544f7b" stroke="#544f7b"/><path d="M1034,879L1144,968L1098,807Z" fill="#504b85" stroke="#504b85"/><path d="M1098,807L1144,968L1295,864Z" fill="#453c7e" stroke="#453c7e"/><path d="M1295,864L1144,968L1334,943Z" fill="#3c2e6a" stroke="#3c2e6a"/><path d="M1295,864L1334,943L1414,832Z" fill="#311d6c" stroke="#311d6c"/><path d="M1414,832L1334,943L1425,1000Z" fill="#2b155c" stroke="#2b155c"/><path d="M1414,832L1425,1000L1559,784Z" fill="#220862" stroke="#220862"/><path d="M1559,784L1425,1000L1632,1018Z" fill="#19004b" stroke="#19004b"/><path d="M1559,784L1632,1018L1777,925Z" fill="#0b0044" stroke="#0b0044"/><path d="M1559,784L1777,925L1744,767Z" fill="#130056" stroke="#130056"/><path d="M1744,767L1777,925L1863,860Z" fill="#050045" stroke="#050045"/><path d="M1863,860L1777,925L1824,989Z" fill="#00002f" stroke="#00002f"/><path d="M-77,1033L789,1035L381,1010Z" fill="#7b5b32" stroke="#7b5b32"/><path d="M-77,1033L381,1010L30,984Z" fill="#663b10" stroke="#663b10"/><path d="M30,984L381,1010L269,950Z" fill="#734b24" stroke="#734b24"/><path d="M381,1010L789,1035L503,996Z" fill="#7f705b" stroke="#7f705b"/><path d="M503,996L789,1035L659,933Z" fill="#796f6b" stroke="#796f6b"/><path d="M789,1035L1632,1018L1425,1000Z" fill="#392951" stroke="#392951"/><path d="M789,1035L1425,1000L1144,968Z" fill="#4d4766" stroke="#4d4766"/><path d="M789,1035L1144,968L1002,952Z" fill="#5d5a74" stroke="#5d5a74"/><path d="M1144,968L1425,1000L1334,943Z" fill="#36265a" stroke="#36265a"/><path d="M1632,1018L1824,989L1777,925Z" fill="#00002a" stroke="#00002a"/></g></svg>