<svg width="1680" height="837" xmlns="http://www.w3.org/2000/svg"><g><path d="M-134,-83L-120,785L-118,390Z" fill="#e7e6fb" stroke="#e7e6fb"/><path d="M-134,-83L-118,390L-36,119Z" fill="#ffffff" stroke="#ffffff"/><path d="M-134,-83L-36,119L99,-85Z" fill="#fefeff" stroke="#fefeff"/><path d="M-134,-83L99,-85L920,-131Z" fill="#f3f2f8" stroke="#f3f2f8"/><path d="M99,-85L-36,119L81,110Z" fill="#fcfcfd" stroke="#fcfcfd"/><path d="M99,-85L81,110L266,83Z" fill="#f9f8fb" stroke="#f9f8fb"/><path d="M99,-85L266,83L284,-58Z" fill="#f7f6fa" stroke="#f7f6fa"/><path d="M99,-85L284,-58L423,-92Z" fill="#f4f4f9" stroke="#f4f4f9"/><path d="M99,-85L423,-92L825,-121Z" fill="#ebebf4" stroke="#ebebf4"/><path d="M99,-85L825,-121L920,-131Z" fill="#dfdfee" stroke="#dfdfee"/><path d="M284,-58L266,83L421,45Z" fill="#f2f1f8" stroke="#f2f1f8"/><path d="M284,-58L421,45L423,-92Z" fill="#efeff6" stroke="#efeff6"/><path d="M423,-92L421,45L498,41Z" fill="#ebebf4" stroke="#ebebf4"/><path d="M423,-92L498,41L536,-62Z" fill="#e8e8f3" stroke="#e8e8f3"/><path d="M423,-92L536,-62L825,-121Z" fill="#e0e1ef" stroke="#e0e1ef"/><path d="M536,-62L498,41L678,72Z" fill="#e2e2f0" stroke="#e2e2f0"/><path d="M536,-62L678,72L691,-45Z" fill="#dddeee" stroke="#dddeee"/><path d="M536,-62L691,-45L825,-121Z" fill="#dadaeb" stroke="#dadaeb"/><path d="M691,-45L678,72L858,92Z" fill="#d6d5e8" stroke="#d6d5e8"/><path d="M691,-45L858,92L825,-121Z" fill="#d2d1e6" stroke="#d2d1e6"/><path d="M825,-121L858,92L920,-131Z" fill="#cdcbe3" stroke="#cdcbe3"/><path d="M920,-131L858,92L971,128Z" fill="#c9c7e1" stroke="#c9c7e1"/><path d="M920,-131L971,128L1069,-129Z" fill="#c4c3df" stroke="#c4c3df"/><path d="M1069,-129L971,128L1144,35Z" fill="#bfbddc" stroke="#bfbddc"/><path d="M1069,-129L1144,35L1266,-58Z" fill="#bab3d7" stroke="#bab3d7"/><path d="M1069,-129L1266,-58L1367,-91Z" fill="#b6abd3" stroke="#b6abd3"/><path d="M1069,-129L1367,-91L1589,-122Z" fill="#af9ccc" stroke="#af9ccc"/><path d="M1266,-58L1144,35L1328,82Z" fill="#b5aad2" stroke="#b5aad2"/><path d="M1266,-58L1328,82L1367,-91Z" fill="#b09fcd" stroke="#b09fcd"/><path d="M1367,-91L1328,82L1383,107Z" fill="#ad9aca" stroke="#ad9aca"/><path d="M1367,-91L1383,107L1565,63Z" fill="#a78ec5" stroke="#a78ec5"/><path d="M1367,-91L1565,63L1589,-122Z" fill="#a284c0" stroke="#a284c0"/><path d="M1589,-122L1565,63L1708,-45Z" fill="#9980b8" stroke="#9980b8"/><path d="M1589,-122L1708,-45L1876,-15Z" fill="#9180b1" stroke="#9180b1"/><path d="M1708,-45L1565,63L1746,103Z" fill="#9580b5" stroke="#9580b5"/><path d="M1708,-45L1746,103L1876,-15Z" fill="#8d80ae" stroke="#8d80ae"/><path d="M1876,-15L1746,103L1825,119Z" fill="#8a80ab" stroke="#8a80ab"/><path d="M1876,-15L1825,119L1913,246Z" fill="#8680a7" stroke="#8680a7"/><path d="M-36,119L-118,390L-26,259Z" fill="#f8f9ff" stroke="#f8f9ff"/><path d="M-36,119L-26,259L49,174Z" fill="#fefdfe" stroke="#fefdfe"/><path d="M-36,119L49,174L81,110Z" fill="#fdfcfe" stroke="#fdfcfe"/><path d="M81,110L49,174L194,235Z" fill="#fafafc" stroke="#fafafc"/><path d="M81,110L194,235L266,83Z" fill="#f8f7fb" stroke="#f8f7fb"/><path d="M266,83L194,235L333,271Z" fill="#f5f4f9" stroke="#f5f4f9"/><path d="M266,83L333,271L421,45Z" fill="#f1f0f7" stroke="#f1f0f7"/><path d="M421,45L333,271L549,245Z" fill="#ececf5" stroke="#ececf5"/><path d="M421,45L549,245L498,41Z" fill="#e8e8f3" stroke="#e8e8f3"/><path d="M498,41L549,245L678,72Z" fill="#e2e2f0" stroke="#e2e2f0"/><path d="M678,72L549,245L626,244Z" fill="#dfdfee" stroke="#dfdfee"/><path d="M678,72L626,244L869,174Z" fill="#d7d6e9" stroke="#d7d6e9"/><path d="M678,72L869,174L858,92Z" fill="#d1d0e6" stroke="#d1d0e6"/><path d="M858,92L869,174L971,128Z" fill="#cbc9e2" stroke="#cbc9e2"/><path d="M971,128L869,174L931,230Z" fill="#c9c7e1" stroke="#c9c7e1"/><path d="M971,128L931,230L1118,190Z" fill="#c3c1de" stroke="#c3c1de"/><path d="M971,128L1118,190L1144,35Z" fill="#bebbdb" stroke="#bebbdb"/><path d="M1144,35L1118,190L1297,199Z" fill="#b9b0d5" stroke="#b9b0d5"/><path d="M1144,35L1297,199L1328,82Z" fill="#b5a9d1" stroke="#b5a9d1"/><path d="M1328,82L1297,199L1383,107Z" fill="#af9dcc" stroke="#af9dcc"/><path d="M1383,107L1297,199L1417,195Z" fill="#ad99ca" stroke="#ad99ca"/><path d="M1383,107L1417,195L1565,63Z" fill="#a68cc4" stroke="#a68cc4"/><path d="M1565,63L1417,195L1540,226Z" fill="#a284c0" stroke="#a284c0"/><path d="M1565,63L1540,226L1691,224Z" fill="#9b80ba" stroke="#9b80ba"/><path d="M1565,63L1691,224L1746,103Z" fill="#9680b5" stroke="#9680b5"/><path d="M1746,103L1691,224L1825,119Z" fill="#8f80af" stroke="#8f80af"/><path d="M1825,119L1691,224L1913,246Z" fill="#8b80ab" stroke="#8b80ab"/><path d="M-26,259L-118,390L94,385Z" fill="#e9e9fc" stroke="#e9e9fc"/><path d="M-26,259L94,385L49,174Z" fill="#f3f3fe" stroke="#f3f3fe"/><path d="M49,174L94,385L194,235Z" fill="#f2f2fc" stroke="#f2f2fc"/><path d="M194,235L94,385L199,362Z" fill="#e7e6fa" stroke="#e7e6fa"/><path d="M194,235L199,362L333,271Z" fill="#eae9f9" stroke="#eae9f9"/><path d="M333,271L199,362L405,396Z" fill="#deddf6" stroke="#deddf6"/><path d="M333,271L405,396L515,339Z" fill="#dadaf4" stroke="#dadaf4"/><path d="M333,271L515,339L549,245Z" fill="#dedff4" stroke="#dedff4"/><path d="M549,245L515,339L631,340Z" fill="#d4d5f0" stroke="#d4d5f0"/><path d="M549,245L631,340L626,244Z" fill="#d6d7ef" stroke="#d6d7ef"/><path d="M626,244L631,340L801,379Z" fill="#c9c9eb" stroke="#c9c9eb"/><path d="M626,244L801,379L869,174Z" fill="#cccbe7" stroke="#cccbe7"/><path d="M869,174L801,379L931,230Z" fill="#c5c3e3" stroke="#c5c3e3"/><path d="M931,230L801,379L972,357Z" fill="#b9b8e1" stroke="#b9b8e1"/><path d="M931,230L972,357L1118,190Z" fill="#bbbade" stroke="#bbbade"/><path d="M1118,190L972,357L1160,340Z" fill="#b1aedb" stroke="#b1aedb"/><path d="M1118,190L1160,340L1297,199Z" fill="#b3aad5" stroke="#b3aad5"/><path d="M1297,199L1160,340L1327,393Z" fill="#a69ad1" stroke="#a69ad1"/><path d="M1297,199L1327,393L1406,327Z" fill="#a08ecb" stroke="#a08ecb"/><path d="M1297,199L1406,327L1417,195Z" fill="#a893c9" stroke="#a893c9"/><path d="M1417,195L1406,327L1540,226Z" fill="#a087c4" stroke="#a087c4"/><path d="M1540,226L1406,327L1602,375Z" fill="#9275c0" stroke="#9275c0"/><path d="M1540,226L1602,375L1691,224Z" fill="#9176b9" stroke="#9176b9"/><path d="M1691,224L1602,375L1761,410Z" fill="#816cb2" stroke="#816cb2"/><path d="M1691,224L1761,410L1913,246Z" fill="#8074ad" stroke="#8074ad"/><path d="M1913,246L1761,410L1930,399Z" fill="#7069a4" stroke="#7069a4"/><path d="M-118,390L-120,785L-108,465Z" fill="#c9c4ec" stroke="#c9c4ec"/><path d="M-118,390L-108,465L94,385Z" fill="#dfdcf8" stroke="#dfdcf8"/><path d="M94,385L-108,465L106,528Z" fill="#d4d2f2" stroke="#d4d2f2"/><path d="M94,385L106,528L199,362Z" fill="#d7d4f3" stroke="#d7d4f3"/><path d="M199,362L106,528L243,585Z" fill="#cac8ed" stroke="#cac8ed"/><path d="M199,362L243,585L405,396Z" fill="#cdcaee" stroke="#cdcaee"/><path d="M405,396L243,585L401,578Z" fill="#bdbbe7" stroke="#bdbbe7"/><path d="M405,396L401,578L519,501Z" fill="#bdbce6" stroke="#bdbce6"/><path d="M405,396L519,501L515,339Z" fill="#c8c7ec" stroke="#c8c7ec"/><path d="M515,339L519,501L631,340Z" fill="#c6c5ea" stroke="#c6c5ea"/><path d="M631,340L519,501L624,520Z" fill="#b9b7e4" stroke="#b9b7e4"/><path d="M631,340L624,520L801,379Z" fill="#b9b7e4" stroke="#b9b7e4"/><path d="M801,379L624,520L865,566Z" fill="#a7a4da" stroke="#a7a4da"/><path d="M801,379L865,566L972,357Z" fill="#a8a4d9" stroke="#a8a4d9"/><path d="M972,357L865,566L943,563Z" fill="#9a96d3" stroke="#9a96d3"/><path d="M972,357L943,563L1184,487Z" fill="#9793d1" stroke="#9793d1"/><path d="M972,357L1184,487L1160,340Z" fill="#9f99d4" stroke="#9f99d4"/><path d="M1160,340L1184,487L1244,473Z" fill="#9489cc" stroke="#9489cc"/><path d="M1160,340L1244,473L1327,393Z" fill="#9789cc" stroke="#9789cc"/><path d="M1327,393L1244,473L1464,499Z" fill="#8672c0" stroke="#8672c0"/><path d="M1327,393L1464,499L1406,327Z" fill="#8b73c1" stroke="#8b73c1"/><path d="M1406,327L1464,499L1602,375Z" fill="#8567bb" stroke="#8567bb"/><path d="M1602,375L1464,499L1549,576Z" fill="#7351b1" stroke="#7351b1"/><path d="M1602,375L1549,576L1683,497Z" fill="#6d52ac" stroke="#6d52ac"/><path d="M1602,375L1683,497L1761,410Z" fill="#725bac" stroke="#725bac"/><path d="M1761,410L1683,497L1842,509Z" fill="#6453a2" stroke="#6453a2"/><path d="M1761,410L1842,509L1930,399Z" fill="#63599f" stroke="#63599f"/><path d="M1930,399L1842,509L1841,673Z" fill="#524a96" stroke="#524a96"/><path d="M1930,399L1841,673L1922,782Z" fill="#453388" stroke="#453388"/><path d="M-108,465L-120,785L-58,719Z" fill="#baa7dc" stroke="#baa7dc"/><path d="M-108,465L-58,719L106,528Z" fill="#c5bde8" stroke="#c5bde8"/><path d="M106,528L-58,719L98,664Z" fill="#baaadd" stroke="#baaadd"/><path d="M106,528L98,664L243,585Z" fill="#bdb2e1" stroke="#bdb2e1"/><path d="M243,585L98,664L276,641Z" fill="#b6a6db" stroke="#b6a6db"/><path d="M243,585L276,641L401,578Z" fill="#b5a9dd" stroke="#b5a9dd"/><path d="M401,578L276,641L373,673Z" fill="#af9fd8" stroke="#af9fd8"/><path d="M401,578L373,673L523,647Z" fill="#aa9bd5" stroke="#aa9bd5"/><path d="M401,578L523,647L519,501Z" fill="#aea7dc" stroke="#aea7dc"/><path d="M519,501L523,647L624,520Z" fill="#aca6db" stroke="#aca6db"/><path d="M624,520L523,647L703,725Z" fill="#9e8fcf" stroke="#9e8fcf"/><path d="M624,520L703,725L843,671Z" fill="#9584c9" stroke="#9584c9"/><path d="M624,520L843,671L865,566Z" fill="#988dce" stroke="#988dce"/><path d="M865,566L843,671L943,563Z" fill="#8f81c7" stroke="#8f81c7"/><path d="M943,563L843,671L948,712Z" fill="#8572bf" stroke="#8572bf"/><path d="M943,563L948,712L1122,616Z" fill="#8271bf" stroke="#8271bf"/><path d="M943,563L1122,616L1184,487Z" fill="#877ec6" stroke="#877ec6"/><path d="M1184,487L1122,616L1262,696Z" fill="#7b67bb" stroke="#7b67bb"/><path d="M1184,487L1262,696L1244,473Z" fill="#7f6fbe" stroke="#7f6fbe"/><path d="M1244,473L1262,696L1425,636Z" fill="#7358b3" stroke="#7358b3"/><path d="M1244,473L1425,636L1464,499Z" fill="#775fb7" stroke="#775fb7"/><path d="M1464,499L1425,636L1549,576Z" fill="#6b47ab" stroke="#6b47ab"/><path d="M1549,576L1425,636L1561,766Z" fill="#5c2b9c" stroke="#5c2b9c"/><path d="M1549,576L1561,766L1633,669Z" fill="#542496" stroke="#542496"/><path d="M1549,576L1633,669L1683,497Z" fill="#5f3ca0" stroke="#5f3ca0"/><path d="M1683,497L1633,669L1740,710Z" fill="#543196" stroke="#543196"/><path d="M1683,497L1740,710L1841,673Z" fill="#4f3191" stroke="#4f3191"/><path d="M1683,497L1841,673L1842,509Z" fill="#544197" stroke="#544197"/><path d="M-58,719L-120,785L57,785Z" fill="#a688cb" stroke="#a688cb"/><path d="M-58,719L57,785L98,664Z" fill="#ab91d0" stroke="#ab91d0"/><path d="M98,664L57,785L205,818Z" fill="#a384c8" stroke="#a384c8"/><path d="M98,664L205,818L276,641Z" fill="#a990cf" stroke="#a990cf"/><path d="M276,641L205,818L373,673Z" fill="#a48bcc" stroke="#a48bcc"/><path d="M373,673L205,818L377,846Z" fill="#9676c1" stroke="#9676c1"/><path d="M373,673L377,846L474,878Z" fill="#8e6ebb" stroke="#8e6ebb"/><path d="M373,673L474,878L523,647Z" fill="#977cc4" stroke="#977cc4"/><path d="M523,647L474,878L639,849Z" fill="#8665b8" stroke="#8665b8"/><path d="M523,647L639,849L703,725Z" fill="#896ebd" stroke="#896ebd"/><path d="M703,725L639,849L847,842Z" fill="#7656ae" stroke="#7656ae"/><path d="M703,725L847,842L843,671Z" fill="#7c5eb4" stroke="#7c5eb4"/><path d="M843,671L847,842L948,712Z" fill="#775ab1" stroke="#775ab1"/><path d="M948,712L847,842L939,820Z" fill="#6c49a8" stroke="#6c49a8"/><path d="M948,712L939,820L1177,860Z" fill="#6241a4" stroke="#6241a4"/><path d="M948,712L1177,860L1122,616Z" fill="#6b4eac" stroke="#6b4eac"/><path d="M1122,616L1177,860L1221,829Z" fill="#5f39a0" stroke="#5f39a0"/><path d="M1122,616L1221,829L1262,696Z" fill="#6846a8" stroke="#6846a8"/><path d="M1262,696L1221,829L1382,853Z" fill="#542596" stroke="#542596"/><path d="M1262,696L1382,853L1425,636Z" fill="#5a2d9c" stroke="#5a2d9c"/><path d="M1425,636L1382,853L1561,766Z" fill="#4f1891" stroke="#4f1891"/><path d="M1633,669L1561,766L1708,781Z" fill="#441087" stroke="#441087"/><path d="M1633,669L1708,781L1740,710Z" fill="#421586" stroke="#421586"/><path d="M1740,710L1708,781L1922,782Z" fill="#340a79" stroke="#340a79"/><path d="M1740,710L1922,782L1841,673Z" fill="#37157c" stroke="#37157c"/><path d="M-120,785L-78,915L57,785Z" fill="#9a7fc0" stroke="#9a7fc0"/><path d="M57,785L-78,915L84,1007Z" fill="#8b7db3" stroke="#8b7db3"/><path d="M57,785L84,1007L205,818Z" fill="#8e7ab6" stroke="#8e7ab6"/><path d="M205,818L84,1007L266,951Z" fill="#8278ac" stroke="#8278ac"/><path d="M205,818L266,951L377,846Z" fill="#8773b3" stroke="#8773b3"/><path d="M377,846L266,951L409,930Z" fill="#7d70ab" stroke="#7d70ab"/><path d="M377,846L409,930L474,878Z" fill="#7e6dad" stroke="#7e6dad"/><path d="M474,878L409,930L477,1019Z" fill="#716ba3" stroke="#716ba3"/><path d="M474,878L477,1019L639,849Z" fill="#7066a4" stroke="#7066a4"/><path d="M639,849L477,1019L735,999Z" fill="#63609a" stroke="#63609a"/><path d="M639,849L735,999L847,842Z" fill="#64569e" stroke="#64569e"/><path d="M847,842L735,999L852,962Z" fill="#595095" stroke="#595095"/><path d="M847,842L852,962L939,820Z" fill="#5e4b9c" stroke="#5e4b9c"/><path d="M939,820L852,962L986,990Z" fill="#524792" stroke="#524792"/><path d="M939,820L986,990L1177,860Z" fill="#514094" stroke="#514094"/><path d="M1177,860L986,990L1100,1032Z" fill="#413b86" stroke="#413b86"/><path d="M1177,860L1100,1032L1246,963Z" fill="#3e3283" stroke="#3e3283"/><path d="M1177,860L1246,963L1221,829Z" fill="#482d8c" stroke="#482d8c"/><path d="M1221,829L1246,963L1382,853Z" fill="#442588" stroke="#442588"/><path d="M1382,853L1246,963L1478,1018Z" fill="#321978" stroke="#321978"/><path d="M1382,853L1478,1018L1621,932Z" fill="#2b0771" stroke="#2b0771"/><path d="M1382,853L1621,932L1561,766Z" fill="#38037d" stroke="#38037d"/><path d="M1561,766L1621,932L1708,781Z" fill="#340079" stroke="#340079"/><path d="M1708,781L1621,932L1759,918Z" fill="#26006c" stroke="#26006c"/><path d="M1708,781L1759,918L1922,782Z" fill="#27006d" stroke="#27006d"/><path d="M1922,782L1759,918L1821,1003Z" fill="#17005f" stroke="#17005f"/><path d="M84,1007L477,1019L266,951Z" fill="#74749f" stroke="#74749f"/><path d="M266,951L477,1019L409,930Z" fill="#716fa1" stroke="#716fa1"/><path d="M477,1019L1100,1032L735,999Z" fill="#54538a" stroke="#54538a"/><path d="M735,999L1100,1032L986,990Z" fill="#484684" stroke="#484684"/><path d="M735,999L986,990L852,962Z" fill="#4e4c8b" stroke="#4e4c8b"/><path d="M1100,1032L1478,1018L1246,963Z" fill="#342775" stroke="#342775"/><path d="M1478,1018L1821,1003L1621,932Z" fill="#18005f" stroke="#18005f"/><path d="M1621,932L1821,1003L1759,918Z" fill="#16005e" stroke="#16005e"/></g></svg>