<svg width="1680" height="837" xmlns="http://www.w3.org/2000/svg"><g><path d="M-123,-99L-130,882L-107,97Z" fill="#e5d1a1" stroke="#e5d1a1"/><path d="M-123,-99L-107,97L22,27Z" fill="#eac168" stroke="#eac168"/><path d="M-123,-99L22,27L94,-18Z" fill="#ecc267" stroke="#ecc267"/><path d="M-123,-99L94,-18L278,-131Z" fill="#eec365" stroke="#eec365"/><path d="M94,-18L22,27L98,208Z" fill="#eece89" stroke="#eece89"/><path d="M94,-18L98,208L251,59Z" fill="#f0d396" stroke="#f0d396"/><path d="M94,-18L251,59L278,-131Z" fill="#f1ce82" stroke="#f1ce82"/><path d="M278,-131L251,59L406,-67Z" fill="#f4d38c" stroke="#f4d38c"/><path d="M278,-131L406,-67L552,-43Z" fill="#f6d790" stroke="#f6d790"/><path d="M278,-131L552,-43L839,-131Z" fill="#fade9e" stroke="#fade9e"/><path d="M406,-67L251,59L397,73Z" fill="#f5daa1" stroke="#f5daa1"/><path d="M406,-67L397,73L552,-43Z" fill="#f7dea6" stroke="#f7dea6"/><path d="M552,-43L397,73L547,114Z" fill="#f9e5ba" stroke="#f9e5ba"/><path d="M552,-43L547,114L709,-30Z" fill="#f4e4b7" stroke="#f4e4b7"/><path d="M552,-43L709,-30L839,-131Z" fill="#e7d89d" stroke="#e7d89d"/><path d="M709,-30L547,114L733,51Z" fill="#ece3bb" stroke="#ece3bb"/><path d="M709,-30L733,51L839,-131Z" fill="#dfd7a1" stroke="#dfd7a1"/><path d="M839,-131L733,51L861,89Z" fill="#d8d7a7" stroke="#d8d7a7"/><path d="M839,-131L861,89L954,-119Z" fill="#cdce95" stroke="#cdce95"/><path d="M839,-131L954,-119L1172,-103Z" fill="#bfc37e" stroke="#bfc37e"/><path d="M839,-131L1172,-103L1853,-73Z" fill="#96b46e" stroke="#96b46e"/><path d="M954,-119L861,89L1007,124Z" fill="#c6d2a5" stroke="#c6d2a5"/><path d="M954,-119L1007,124L1145,30Z" fill="#b8cb9b" stroke="#b8cb9b"/><path d="M954,-119L1145,30L1172,-103Z" fill="#b1c185" stroke="#b1c185"/><path d="M1172,-103L1145,30L1321,-82Z" fill="#a0bb80" stroke="#a0bb80"/><path d="M1172,-103L1321,-82L1430,-72Z" fill="#93b372" stroke="#93b372"/><path d="M1172,-103L1430,-72L1853,-73Z" fill="#80aa66" stroke="#80aa66"/><path d="M1321,-82L1145,30L1257,110Z" fill="#9cbf8f" stroke="#9cbf8f"/><path d="M1321,-82L1257,110L1466,24Z" fill="#8db987" stroke="#8db987"/><path d="M1321,-82L1466,24L1430,-72Z" fill="#85b175" stroke="#85b175"/><path d="M1430,-72L1466,24L1538,19Z" fill="#80af78" stroke="#80af78"/><path d="M1430,-72L1538,19L1629,-47Z" fill="#80aa6f" stroke="#80aa6f"/><path d="M1430,-72L1629,-47L1853,-73Z" fill="#80a261" stroke="#80a261"/><path d="M1629,-47L1538,19L1713,-15Z" fill="#80a66e" stroke="#80a66e"/><path d="M1629,-47L1713,-15L1853,-73Z" fill="#809e5f" stroke="#809e5f"/><path d="M1713,-15L1538,19L1760,112Z" fill="#80a878" stroke="#80a878"/><path d="M1713,-15L1760,112L1879,79Z" fill="#80a375" stroke="#80a375"/><path d="M1713,-15L1879,79L1853,-73Z" fill="#809c64" stroke="#809c64"/><path d="M-107,97L-130,882L-39,506Z" fill="#b0c493" stroke="#b0c493"/><path d="M-107,97L-39,506L-22,321Z" fill="#e3d4a9" stroke="#e3d4a9"/><path d="M-107,97L-22,321L-16,269Z" fill="#ead2a0" stroke="#ead2a0"/><path d="M-107,97L-16,269L98,208Z" fill="#ecd29c" stroke="#ecd29c"/><path d="M-107,97L98,208L22,27Z" fill="#eccd8a" stroke="#eccd8a"/><path d="M251,59L98,208L262,240Z" fill="#f1ddb2" stroke="#f1ddb2"/><path d="M251,59L262,240L397,73Z" fill="#f4e0b4" stroke="#f4e0b4"/><path d="M397,73L262,240L363,271Z" fill="#f5e7ca" stroke="#f5e7ca"/><path d="M397,73L363,271L547,114Z" fill="#f7e9cc" stroke="#f7e9cc"/><path d="M547,114L363,271L570,227Z" fill="#f9f1e0" stroke="#f9f1e0"/><path d="M547,114L570,227L622,251Z" fill="#f8f3e5" stroke="#f8f3e5"/><path d="M547,114L622,251L733,51Z" fill="#f0ebd3" stroke="#f0ebd3"/><path d="M733,51L622,251L767,196Z" fill="#e6e9d5" stroke="#e6e9d5"/><path d="M733,51L767,196L861,89Z" fill="#dbe1c3" stroke="#dbe1c3"/><path d="M861,89L767,196L1010,208Z" fill="#cedfca" stroke="#cedfca"/><path d="M861,89L1010,208L1007,124Z" fill="#c3d9bf" stroke="#c3d9bf"/><path d="M1007,124L1010,208L1163,246Z" fill="#b5d7c5" stroke="#b5d7c5"/><path d="M1007,124L1163,246L1145,30Z" fill="#afd0b4" stroke="#afd0b4"/><path d="M1145,30L1163,246L1257,110Z" fill="#a3caad" stroke="#a3caad"/><path d="M1257,110L1163,246L1315,219Z" fill="#9bccb9" stroke="#9bccb9"/><path d="M1257,110L1315,219L1371,216Z" fill="#92c7b2" stroke="#92c7b2"/><path d="M1257,110L1371,216L1466,24Z" fill="#8bc09e" stroke="#8bc09e"/><path d="M1466,24L1371,216L1536,276Z" fill="#80bea6" stroke="#80bea6"/><path d="M1466,24L1536,276L1538,19Z" fill="#80b692" stroke="#80b692"/><path d="M1538,19L1536,276L1734,176Z" fill="#80b599" stroke="#80b599"/><path d="M1538,19L1734,176L1760,112Z" fill="#80ac87" stroke="#80ac87"/><path d="M1760,112L1734,176L1839,192Z" fill="#80ab8e" stroke="#80ab8e"/><path d="M1760,112L1839,192L1879,79Z" fill="#80a583" stroke="#80a583"/><path d="M1879,79L1839,192L1925,388Z" fill="#80a996" stroke="#80a996"/><path d="M-16,269L-22,321L112,341Z" fill="#e4d9b2" stroke="#e4d9b2"/><path d="M-16,269L112,341L98,208Z" fill="#edddb9" stroke="#edddb9"/><path d="M98,208L112,341L262,240Z" fill="#f0e2c2" stroke="#f0e2c2"/><path d="M262,240L112,341L276,341Z" fill="#eae4cc" stroke="#eae4cc"/><path d="M262,240L276,341L363,271Z" fill="#f2ead8" stroke="#f2ead8"/><path d="M363,271L276,341L387,393Z" fill="#e6e9d9" stroke="#e6e9d9"/><path d="M363,271L387,393L493,375Z" fill="#e4ede2" stroke="#e4ede2"/><path d="M363,271L493,375L570,227Z" fill="#f5f4ee" stroke="#f5f4ee"/><path d="M570,227L493,375L622,251Z" fill="#f9fafa" stroke="#f9fafa"/><path d="M622,251L493,375L734,434Z" fill="#dff1f0" stroke="#dff1f0"/><path d="M622,251L734,434L767,196Z" fill="#e2f1ef" stroke="#e2f1ef"/><path d="M767,196L734,434L849,413Z" fill="#c9e8e6" stroke="#c9e8e6"/><path d="M767,196L849,413L977,318Z" fill="#c8e7e4" stroke="#c8e7e4"/><path d="M767,196L977,318L1010,208Z" fill="#c9e2d9" stroke="#c9e2d9"/><path d="M1010,208L977,318L1163,246Z" fill="#b6dcd5" stroke="#b6dcd5"/><path d="M1163,246L977,318L1131,402Z" fill="#a5d8d4" stroke="#a5d8d4"/><path d="M1163,246L1131,402L1225,427Z" fill="#90d1cb" stroke="#90d1cb"/><path d="M1163,246L1225,427L1315,219Z" fill="#98d2cd" stroke="#98d2cd"/><path d="M1315,219L1225,427L1467,424Z" fill="#7ac8c1" stroke="#7ac8c1"/><path d="M1315,219L1467,424L1371,216Z" fill="#86cac4" stroke="#86cac4"/><path d="M1371,216L1467,424L1536,276Z" fill="#79c4bd" stroke="#79c4bd"/><path d="M1536,276L1467,424L1543,361Z" fill="#6cbdb5" stroke="#6cbdb5"/><path d="M1536,276L1543,361L1732,408Z" fill="#6db9b0" stroke="#6db9b0"/><path d="M1536,276L1732,408L1734,176Z" fill="#7eb9b2" stroke="#7eb9b2"/><path d="M1734,176L1732,408L1839,192Z" fill="#80b3a6" stroke="#80b3a6"/><path d="M1839,192L1732,408L1925,388Z" fill="#72ada3" stroke="#72ada3"/><path d="M-22,321L-39,506L112,341Z" fill="#cfd2aa" stroke="#cfd2aa"/><path d="M112,341L-39,506L171,527Z" fill="#bed1ad" stroke="#bed1ad"/><path d="M112,341L171,527L276,341Z" fill="#d0dbbf" stroke="#d0dbbf"/><path d="M276,341L171,527L321,536Z" fill="#c0dbc2" stroke="#c0dbc2"/><path d="M276,341L321,536L387,393Z" fill="#cee2cf" stroke="#cee2cf"/><path d="M387,393L321,536L478,556Z" fill="#bce1d2" stroke="#bce1d2"/><path d="M387,393L478,556L493,375Z" fill="#cce8de" stroke="#cce8de"/><path d="M493,375L478,556L698,517Z" fill="#c4ece8" stroke="#c4ece8"/><path d="M493,375L698,517L734,434Z" fill="#c4eae6" stroke="#c4eae6"/><path d="M734,434L698,517L810,533Z" fill="#a7e0db" stroke="#a7e0db"/><path d="M734,434L810,533L849,413Z" fill="#a9dfdb" stroke="#a9dfdb"/><path d="M849,413L810,533L1002,535Z" fill="#94d8d2" stroke="#94d8d2"/><path d="M849,413L1002,535L977,318Z" fill="#9fdad4" stroke="#9fdad4"/><path d="M977,318L1002,535L1131,402Z" fill="#93d5cf" stroke="#93d5cf"/><path d="M1131,402L1002,535L1166,484Z" fill="#7ccdc6" stroke="#7ccdc6"/><path d="M1131,402L1166,484L1225,427Z" fill="#7bcbc4" stroke="#7bcbc4"/><path d="M1225,427L1166,484L1315,570Z" fill="#64c4bb" stroke="#64c4bb"/><path d="M1225,427L1315,570L1440,518Z" fill="#54beb4" stroke="#54beb4"/><path d="M1225,427L1440,518L1467,424Z" fill="#5abeb5" stroke="#5abeb5"/><path d="M1467,424L1440,518L1609,567Z" fill="#44b3a9" stroke="#44b3a9"/><path d="M1467,424L1609,567L1543,361Z" fill="#52b5ab" stroke="#52b5ab"/><path d="M1543,361L1609,567L1690,515Z" fill="#4aafa4" stroke="#4aafa4"/><path d="M1543,361L1690,515L1732,408Z" fill="#58b0a5" stroke="#58b0a5"/><path d="M1732,408L1690,515L1820,490Z" fill="#4da79c" stroke="#4da79c"/><path d="M1732,408L1820,490L1925,388Z" fill="#58a69a" stroke="#58a69a"/><path d="M1925,388L1820,490L1917,626Z" fill="#459d90" stroke="#459d90"/><path d="M-39,506L-130,882L-15,694Z" fill="#7cb885" stroke="#7cb885"/><path d="M-39,506L-15,694L22,624Z" fill="#94c193" stroke="#94c193"/><path d="M-39,506L22,624L49,579Z" fill="#9fc59a" stroke="#9fc59a"/><path d="M-39,506L49,579L171,527Z" fill="#a9caa3" stroke="#a9caa3"/><path d="M49,579L22,624L183,676Z" fill="#92c59e" stroke="#92c59e"/><path d="M49,579L183,676L171,527Z" fill="#9ccba8" stroke="#9ccba8"/><path d="M171,527L183,676L321,536Z" fill="#a2d1b4" stroke="#a2d1b4"/><path d="M321,536L183,676L378,685Z" fill="#96d1b9" stroke="#96d1b9"/><path d="M321,536L378,685L474,630Z" fill="#9cd8c6" stroke="#9cd8c6"/><path d="M321,536L474,630L478,556Z" fill="#a9ddce" stroke="#a9ddce"/><path d="M478,556L474,630L703,638Z" fill="#a3e2dc" stroke="#a3e2dc"/><path d="M478,556L703,638L698,517Z" fill="#a4e1dc" stroke="#a4e1dc"/><path d="M698,517L703,638L810,533Z" fill="#97dbd5" stroke="#97dbd5"/><path d="M810,533L703,638L770,714Z" fill="#82d6ce" stroke="#82d6ce"/><path d="M810,533L770,714L921,641Z" fill="#77d1c9" stroke="#77d1c9"/><path d="M810,533L921,641L1002,535Z" fill="#7dd1c9" stroke="#7dd1c9"/><path d="M1002,535L921,641L1138,709Z" fill="#5ec7bd" stroke="#5ec7bd"/><path d="M1002,535L1138,709L1166,484Z" fill="#60c5bc" stroke="#60c5bc"/><path d="M1166,484L1138,709L1224,700Z" fill="#48beb3" stroke="#48beb3"/><path d="M1166,484L1224,700L1315,570Z" fill="#4cbdb3" stroke="#4cbdb3"/><path d="M1315,570L1224,700L1384,768Z" fill="#29b2a6" stroke="#29b2a6"/><path d="M1315,570L1384,768L1431,715Z" fill="#1eaea1" stroke="#1eaea1"/><path d="M1315,570L1431,715L1440,518Z" fill="#31b3a7" stroke="#31b3a7"/><path d="M1440,518L1431,715L1582,666Z" fill="#22ab9f" stroke="#22ab9f"/><path d="M1440,518L1582,666L1609,567Z" fill="#2fab9f" stroke="#2fab9f"/><path d="M1609,567L1582,666L1755,687Z" fill="#20a193" stroke="#20a193"/><path d="M1609,567L1755,687L1690,515Z" fill="#2da295" stroke="#2da295"/><path d="M1690,515L1755,687L1820,490Z" fill="#34a093" stroke="#34a093"/><path d="M1820,490L1755,687L1917,626Z" fill="#2a9a8a" stroke="#2a9a8a"/><path d="M-15,694L-130,882L46,836Z" fill="#6bb27f" stroke="#6bb27f"/><path d="M-15,694L46,836L183,676Z" fill="#75bd92" stroke="#75bd92"/><path d="M-15,694L183,676L22,624Z" fill="#87c198" stroke="#87c198"/><path d="M183,676L46,836L224,882Z" fill="#70bd97" stroke="#70bd97"/><path d="M183,676L224,882L344,770Z" fill="#73c5a6" stroke="#73c5a6"/><path d="M183,676L344,770L378,685Z" fill="#81ccb3" stroke="#81ccb3"/><path d="M378,685L344,770L535,864Z" fill="#77cebc" stroke="#77cebc"/><path d="M378,685L535,864L474,630Z" fill="#81d4c6" stroke="#81d4c6"/><path d="M474,630L535,864L703,638Z" fill="#86dbd3" stroke="#86dbd3"/><path d="M703,638L535,864L686,884Z" fill="#6fd1c6" stroke="#6fd1c6"/><path d="M703,638L686,884L770,714Z" fill="#69cfc6" stroke="#69cfc6"/><path d="M770,714L686,884L846,792Z" fill="#5ec9be" stroke="#5ec9be"/><path d="M770,714L846,792L921,641Z" fill="#5fcac1" stroke="#5fcac1"/><path d="M921,641L846,792L1001,870Z" fill="#49c2b7" stroke="#49c2b7"/><path d="M921,641L1001,870L1138,709Z" fill="#40bfb3" stroke="#40bfb3"/><path d="M1138,709L1001,870L1149,854Z" fill="#31b5a8" stroke="#31b5a8"/><path d="M1138,709L1149,854L1224,700Z" fill="#28b5a8" stroke="#28b5a8"/><path d="M1224,700L1149,854L1276,787Z" fill="#20b0a2" stroke="#20b0a2"/><path d="M1224,700L1276,787L1384,768Z" fill="#17aea0" stroke="#17aea0"/><path d="M1431,715L1384,768L1596,807Z" fill="#00a393" stroke="#00a393"/><path d="M1431,715L1596,807L1582,666Z" fill="#08a192" stroke="#08a192"/><path d="M1582,666L1596,807L1755,687Z" fill="#0b9c8c" stroke="#0b9c8c"/><path d="M1755,687L1596,807L1767,817Z" fill="#009584" stroke="#009584"/><path d="M1755,687L1767,817L1905,822Z" fill="#008e7c" stroke="#008e7c"/><path d="M1755,687L1905,822L1917,626Z" fill="#0d907f" stroke="#0d907f"/><path d="M-130,882L-82,979L46,836Z" fill="#6ba974" stroke="#6ba974"/><path d="M46,836L-82,979L58,1005Z" fill="#6caa78" stroke="#6caa78"/><path d="M46,836L58,1005L224,882Z" fill="#6fb388" stroke="#6fb388"/><path d="M224,882L58,1005L273,978Z" fill="#71b48e" stroke="#71b48e"/><path d="M224,882L273,978L357,994Z" fill="#74ba9b" stroke="#74ba9b"/><path d="M224,882L357,994L344,770Z" fill="#74c0a4" stroke="#74c0a4"/><path d="M344,770L357,994L477,928Z" fill="#76c4ad" stroke="#76c4ad"/><path d="M344,770L477,928L535,864Z" fill="#78cbb9" stroke="#78cbb9"/><path d="M535,864L477,928L620,1028Z" fill="#7acabd" stroke="#7acabd"/><path d="M535,864L620,1028L686,884Z" fill="#73c9bd" stroke="#73c9bd"/><path d="M686,884L620,1028L816,1006Z" fill="#66c0b3" stroke="#66c0b3"/><path d="M686,884L816,1006L846,792Z" fill="#5cc1b5" stroke="#5cc1b5"/><path d="M846,792L816,1006L939,944Z" fill="#50bbad" stroke="#50bbad"/><path d="M846,792L939,944L1001,870Z" fill="#48baad" stroke="#48baad"/><path d="M1001,870L939,944L1155,991Z" fill="#39b0a1" stroke="#39b0a1"/><path d="M1001,870L1155,991L1149,854Z" fill="#30ae9f" stroke="#30ae9f"/><path d="M1149,854L1155,991L1258,931Z" fill="#24a797" stroke="#24a797"/><path d="M1149,854L1258,931L1276,787Z" fill="#1eaa9b" stroke="#1eaa9b"/><path d="M1276,787L1258,931L1384,768Z" fill="#14a798" stroke="#14a798"/><path d="M1384,768L1258,931L1449,932Z" fill="#0ca190" stroke="#0ca190"/><path d="M1384,768L1449,932L1596,807Z" fill="#009d8d" stroke="#009d8d"/><path d="M1596,807L1449,932L1607,929Z" fill="#009583" stroke="#009583"/><path d="M1596,807L1607,929L1680,959Z" fill="#00907d" stroke="#00907d"/><path d="M1596,807L1680,959L1767,817Z" fill="#00907d" stroke="#00907d"/><path d="M1767,817L1680,959L1821,1023Z" fill="#008672" stroke="#008672"/><path d="M1767,817L1821,1023L1905,822Z" fill="#008571" stroke="#008571"/><path d="M58,1005L620,1028L357,994Z" fill="#75b99d" stroke="#75b99d"/><path d="M58,1005L357,994L273,978Z" fill="#72b490" stroke="#72b490"/><path d="M357,994L620,1028L477,928Z" fill="#79c3b2" stroke="#79c3b2"/><path d="M620,1028L1821,1023L1155,991Z" fill="#22a18f" stroke="#22a18f"/><path d="M620,1028L1155,991L816,1006Z" fill="#51b4a5" stroke="#51b4a5"/><path d="M816,1006L1155,991L939,944Z" fill="#42b0a1" stroke="#42b0a1"/><path d="M1155,991L1821,1023L1449,932Z" fill="#009380" stroke="#009380"/><path d="M1155,991L1449,932L1258,931Z" fill="#16a08f" stroke="#16a08f"/><path d="M1449,932L1821,1023L1680,959Z" fill="#008975" stroke="#008975"/><path d="M1449,932L1680,959L1607,929Z" fill="#00907d" stroke="#00907d"/></g></svg>