<?xml version="1.0" standalone="no"?>
<!DOCTYPE svg PUBLIC "-//W3C//DTD SVG 1.1//EN" "http://www.w3.org/Graphics/SVG/1.1/DTD/svg11.dtd" >
<svg xmlns="http://www.w3.org/2000/svg" xmlns:xlink="http://www.w3.org/1999/xlink" version="1.1">
<metadata></metadata>
<defs>
<font id="big_johnregular" horiz-adv-x="1331" >
<font-face units-per-em="2048" ascent="1536" descent="-512" />
<missing-glyph horiz-adv-x="921" />
<glyph horiz-adv-x="0" />
<glyph horiz-adv-x="682" />
<glyph unicode=" "  horiz-adv-x="921" />
<glyph unicode="&#x09;" horiz-adv-x="921" />
<glyph unicode="&#xa0;" horiz-adv-x="921" />
<glyph unicode="!" horiz-adv-x="614" d="M143 162q0 68 47.5 116t114.5 48t114.5 -48t47.5 -116t-47.5 -115t-114.5 -47t-114.5 47t-47.5 115zM143 410v1126h324v-1126h-324z" />
<glyph unicode="$" horiz-adv-x="1705" d="M188 479h359q0 -49 33.5 -83t81.5 -34q47 0 81.5 34t34.5 81t-34.5 82t-81.5 35q-197 0 -334.5 137.5t-137.5 333.5q0 155 90 278.5t232 169.5v156h319v-162q134 -52 219 -172t85 -268h-357q0 47 -34.5 82t-81.5 35t-81 -35t-34 -82t34 -81t81 -34q111 0 207.5 -48.5 t162.5 -133.5q103 -128 103 -297q0 -149 -84.5 -268.5t-219.5 -171.5v-139h-319v131q-143 47 -233.5 170.5t-90.5 283.5z" />
<glyph unicode="%" horiz-adv-x="1705" d="M291 0l708 1536h361l-711 -1536h-358zM291 1370q0 66 48 116t114 50t113.5 -50t47.5 -116t-47.5 -113t-113.5 -47t-114 47t-48 113zM1040 160q0 66 48 116t114 50t114 -50t48 -116t-48 -113t-114 -47t-114 47t-48 113z" />
<glyph unicode="&#x26;" horiz-adv-x="1705" d="M369 1151q0 41 12 89t42 101t73 96t112 71t152 28t150.5 -30t108 -74.5t68 -100t38 -103t10.5 -87.5q0 -153 -138 -287l-209 -209q-71 -64 -71 -137q0 -65 47 -125.5t127 -60.5q36 0 69.5 13t48.5 27l15 13l227 227l375 -375l-225 -229l-148 147q-5 -6 -14 -15.5 t-42 -34.5t-70.5 -44.5t-99 -35t-128.5 -15.5q-72 0 -145 22.5t-137.5 66t-115 101.5t-79.5 134.5t-29 160.5q0 67 17.5 132t42.5 109.5t50 79t43 51.5l17 17l234 238q14 16 14 39q0 21 -16 37t-39 16q-11 0 -23 -4t-18 -8l-6 -4q-17 -17 -45.5 -44t-88 -84t-99 -94 t-38.5 -36q0 1 -6.5 12t-17 31.5t-20.5 46t-17.5 61t-7.5 70.5z" />
<glyph unicode="(" horiz-adv-x="962" d="M98 766q0 157 60.5 299.5t163 245.5t245 164t299.5 61v-326q-185 0 -313.5 -129t-128.5 -315q0 -184 129 -313t313 -129v-324q-157 0 -299.5 60t-245 162.5t-163 244.5t-60.5 299z" />
<glyph unicode=")" horiz-adv-x="962" d="M98 0v324q185 0 314 129t129 313q0 186 -129 315t-314 129v326q157 0 299.5 -61t245 -164t163 -245.5t60.5 -299.5t-60.5 -299t-163 -244.5t-245 -162.5t-299.5 -60z" />
<glyph unicode="+" d="M182 578v323h322v324h325v-324h322v-323h-322v-322h-325v322h-322z" />
<glyph unicode="," horiz-adv-x="491" d="M55 158q0 66 48 116t114 50t114 -50t48 -116v-20.5t-7.5 -52.5t-22.5 -76.5t-49.5 -86.5t-82.5 -90v168q-66 0 -114 46t-48 112z" />
<glyph unicode="-" horiz-adv-x="944" d="M59 700v324h807v-324h-807z" />
<glyph unicode="." horiz-adv-x="491" d="M84 166q0 69 46.5 115.5t115.5 46.5t115.5 -46.5t46.5 -115.5t-46.5 -117.5t-115.5 -48.5t-115.5 48.5t-46.5 117.5z" />
<glyph unicode="/" horiz-adv-x="1167" d="M45 0l709 1536h360l-711 -1536h-358z" />
<glyph unicode="0" d="M162 502v532q0 136 67 251.5t182.5 183t252.5 67.5q136 0 252 -67.5t183.5 -183.5t67.5 -253v-530q0 -209 -147 -355.5t-356 -146.5t-355.5 146.5t-146.5 355.5zM483 504q0 -75 53 -127.5t128 -52.5t127.5 52.5t52.5 127.5v526q0 75 -52.5 127.5t-127.5 52.5t-128 -52 t-53 -126v-528z" />
<glyph unicode="1" horiz-adv-x="1064" d="M350 0v1536h404v-1536h-404z" />
<glyph unicode="2" d="M133 1030q0 98 37.5 189.5t104 162t165 112.5t213.5 42q108 0 203 -45t158.5 -117.5t100 -164t36.5 -185.5q0 -71 -23 -142t-46 -106l-23 -35l-293 -415h434v-326h-1063l619 879q67 81 67 157q0 63 -52.5 119.5t-129.5 56.5q-74 0 -126 -53t-52 -129h-330z" />
<glyph unicode="3" d="M231 1212v324h940l-385 -547q8 -2 21.5 -6t52.5 -22t74.5 -40.5t78.5 -63t74 -88.5t52.5 -119t21.5 -152q0 -111 -43.5 -206.5t-113.5 -158t-156.5 -98t-173.5 -35.5q-65 0 -127 15t-104 35.5t-75 42.5t-49 36t-16 16q0 1 57.5 59.5t114.5 116t57 56.5q0 -3 14 -15 t49 -26t79 -14q71 0 118.5 53.5t47.5 120.5q0 71 -45.5 128.5t-122.5 57.5q-48 0 -83 -14t-46 -28l-11 -13l-229 231l246 354h-318z" />
<glyph unicode="4" d="M10 326v327l619 883h407v-885h283v-325h-283v-326h-323v326h-703zM406 651h307v439z" />
<glyph unicode="5" d="M164 502v10h321q0 -75 53 -126.5t128 -51.5q74 0 126 52.5t52 127.5q0 74 -52 126t-126 52h-502v844h969v-326h-646v-206h179q136 0 251.5 -67.5t182.5 -183t67 -251.5t-67 -251.5t-182.5 -183t-251.5 -67.5t-251.5 67.5t-183 183t-67.5 251.5z" />
<glyph unicode="6" d="M160 506q0 143 78 274l438 756h377l-308 -530q181 -29 303.5 -171.5t122.5 -328.5q0 -137 -67.5 -253.5t-184 -184.5t-253.5 -68q-209 0 -357.5 148.5t-148.5 357.5zM485 506q0 -75 53 -127.5t128 -52.5q74 0 127 52.5t53 127.5q0 74 -53 127t-127 53q-75 0 -128 -53 t-53 -127z" />
<glyph unicode="7" d="M70 1208v328h1187v-330l-696 -1206h-373l699 1208h-817z" />
<glyph unicode="8" d="M162 502q0 104 40 198t111 162q-75 112 -75 246q0 177 124.5 302.5t301.5 125.5t302.5 -125.5t125.5 -302.5q0 -135 -78 -246q72 -69 112.5 -162.5t40.5 -197.5q0 -209 -147 -355.5t-356 -146.5t-355.5 146.5t-146.5 355.5zM485 502q0 -73 52.5 -125.5t126.5 -52.5 t127 52.5t53 125.5q0 72 -51 124.5t-123 55.5h-15q-71 -3 -120.5 -55.5t-49.5 -124.5zM563 1106q0 -43 29 -71.5t72 -28.5t72.5 28.5t29.5 71.5t-29.5 72.5t-72.5 29.5t-72 -29.5t-29 -72.5z" />
<glyph unicode="9" d="M166 1034q0 136 67.5 251.5t183 183t251.5 67.5t251.5 -67.5t182.5 -183t67 -251.5q0 -138 -71 -258l-447 -776h-372l309 539q-180 28 -301 168.5t-121 326.5zM487 1028q0 -76 52 -128t129 -52q75 0 127.5 52t52.5 128q0 75 -52.5 127.5t-127.5 52.5q-76 0 -128.5 -52.5 t-52.5 -127.5z" />
<glyph unicode=":" horiz-adv-x="548" d="M125 164q0 68 48.5 116t115.5 48t115.5 -48t48.5 -116t-48.5 -116t-115.5 -48t-115.5 48t-48.5 116zM125 647q0 67 48.5 115.5t115.5 48.5t115.5 -48.5t48.5 -115.5t-48.5 -115.5t-115.5 -48.5t-115.5 48.5t-48.5 115.5z" />
<glyph unicode=";" horiz-adv-x="548" d="M125 158q0 66 48 116t114 50t114 -50t48 -116v-20.5t-7.5 -52.5t-22.5 -76.5t-49.5 -86.5t-82.5 -90v168q-66 0 -114 46t-48 112zM125 647q0 67 48.5 115.5t115.5 48.5t115.5 -48.5t48.5 -115.5t-48.5 -115.5t-115.5 -48.5t-115.5 48.5t-48.5 115.5z" />
<glyph unicode="=" d="M240 201v321h807v-321h-807zM240 846v323h807v-323h-807z" />
<glyph unicode="?" horiz-adv-x="1126" d="M43 1022v12q0 136 67.5 251.5t183 183t251.5 67.5t251.5 -67.5t183 -183t67.5 -251.5q0 -168 -101 -301.5t-258 -179.5v-160h-323v447h180q75 0 126.5 52.5t51.5 129.5q0 75 -51.5 126.5t-126.5 51.5t-126 -49t-54 -121v-8h-322zM362 162q0 69 46.5 114.5t117.5 45.5 q69 0 114.5 -45.5t45.5 -114.5q0 -70 -45.5 -116t-114.5 -46q-71 0 -117.5 46t-46.5 116z" />
<glyph unicode="A" horiz-adv-x="1724" d="M53 0l717 1536h182l723 -1536h-403l-94 201h-629l-92 -201h-404zM707 541h313l-156 338z" />
<glyph unicode="B" horiz-adv-x="1449" d="M156 0v1536h678q121 0 226 -62.5t166.5 -168t61.5 -226.5q0 -150 -98 -276q80 -65 127 -157.5t47 -194.5q0 -120 -61.5 -224t-165.5 -165.5t-224 -61.5h-757zM559 332h270q56 0 95 39t39 94t-40.5 94t-93.5 39h-270v-266zM559 936h195q56 0 94.5 39t38.5 94t-38.5 94 t-94.5 39h-195v-266z" />
<glyph unicode="C" horiz-adv-x="1583" d="M119 768q0 209 103 385.5t279.5 279.5t385.5 103q156 0 295 -58.5t245 -164.5l-282 -285q-100 100 -258 100q-157 0 -259 -101.5t-102 -258.5t102 -258.5t259 -101.5q161 0 258 102l287 -283q-107 -107 -248 -167t-297 -60q-209 0 -385.5 103t-279.5 279.5t-103 385.5z " />
<glyph unicode="D" horiz-adv-x="1615" d="M156 0v1536h569q209 0 385.5 -103t279.5 -279.5t103 -385.5t-103 -385.5t-279.5 -279.5t-385.5 -103h-569zM557 397h170q151 0 258 107t107 258q0 149 -107 255.5t-258 106.5h-170v-727z" />
<glyph unicode="E" horiz-adv-x="1243" d="M156 0v1536h954v-334h-551v-250h488v-340h-488v-282h551v-330h-954z" />
<glyph unicode="F" horiz-adv-x="1251" d="M156 0v1536h962v-332h-559v-250h494v-342h-494v-612h-403z" />
<glyph unicode="G" horiz-adv-x="1732" d="M133 768q0 209 102.5 385.5t279 279.5t384.5 103q155 0 294.5 -59t246.5 -164l-285 -283q-111 103 -256 103q-148 0 -255 -105t-107 -260q0 -102 51.5 -187t134 -131.5t176.5 -46.5q90 0 169.5 41t127.5 111h-297v270h768v-57q0 -209 -103 -385.5t-279.5 -279.5 t-385.5 -103q-208 0 -384.5 103t-279 279.5t-102.5 385.5z" />
<glyph unicode="H" horiz-adv-x="1603" d="M156 0v1536h403v-547h488v547h403v-1536h-403v586h-488v-586h-403z" />
<glyph unicode="I" horiz-adv-x="710" d="M154 0v1536h403v-1536h-403z" />
<glyph unicode="J" horiz-adv-x="1228" d="M39 160q177 177 293 297q51 -51 157 -51q80 0 131.5 47.5t51.5 130.5v952h403v-1012q-2 -103 -36 -190t-91.5 -148t-134 -103.5t-162 -62.5t-176.5 -20q-26 0 -71.5 6.5t-111 22t-135 50t-118.5 81.5z" />
<glyph unicode="K" horiz-adv-x="1757" d="M156 0v1536h403v-518l516 518h565l-700 -702l832 -834h-570l-547 545l-96 -99v-446h-403z" />
<glyph unicode="L" horiz-adv-x="1245" d="M156 0v1536h403v-1130h553v-406h-956z" />
<glyph unicode="M" horiz-adv-x="1925" d="M156 0v1536h182l627 -569l624 569h183v-1536h-406v788l-401 -366l-404 364v-786h-405z" />
<glyph unicode="N" horiz-adv-x="1603" d="M156 0v1536h163l728 -725v725h403v-1536h-166l-725 727v-727h-403z" />
<glyph unicode="O" horiz-adv-x="1783" d="M125 766q0 209 102.5 386t279 280.5t384.5 103.5t385 -103.5t280 -280.5t103 -386q0 -208 -103 -384.5t-279.5 -279t-385.5 -102.5t-385 102.5t-278.5 278.5t-102.5 385zM526 768q0 -151 107 -259t258 -108q152 0 259 108t107 259q0 152 -107 259.5t-259 107.5 q-151 0 -258 -107.5t-107 -259.5z" />
<glyph unicode="P" horiz-adv-x="1429" d="M156 0v1536h647q153 0 283 -76t206 -206t76 -283q0 -114 -44.5 -218t-119.5 -179.5t-178 -120.5t-215 -45h-252v-408h-403zM559 756h250q92 0 156.5 63.5t64.5 155.5t-64.5 156.5t-156.5 64.5h-250v-440z" />
<glyph unicode="Q" horiz-adv-x="1968" d="M125 768q0 209 103 385.5t279.5 279.5t385.5 103t385.5 -103t279.5 -279.5t103 -385.5q0 -206 -102 -381l389 -387h-564l-106 104q-173 -104 -385 -104q-209 0 -385.5 103t-279.5 279.5t-103 385.5zM528 766q0 -154 105.5 -259.5t259.5 -105.5q41 0 78 9l-189 188 l285 283l184 -185q6 34 6 70q0 154 -105 259t-259 105t-259.5 -105t-105.5 -259z" />
<glyph unicode="R" horiz-adv-x="1554" d="M156 0v1536h647q153 0 283 -76t206 -206t76 -283q0 -121 -48.5 -228.5t-133.5 -185.5l325 -557h-464l-238 408h-250v-408h-403zM559 756h250q92 0 156.5 63.5t64.5 155.5t-64.5 156.5t-156.5 64.5h-250v-440z" />
<glyph unicode="S" horiz-adv-x="1208" d="M131 477h358q0 -49 33.5 -83t81.5 -34q47 0 82 34t35 81t-35 82t-82 35q-97 0 -184 37t-150 100t-100 150t-37 184q0 197 137.5 335t333.5 138q197 0 335 -137.5t138 -333.5h-356q0 47 -35 82t-82 35t-81 -35t-34 -82t34 -81t81 -34q111 0 208 -48.5t163 -133.5 q102 -127 102 -297q0 -196 -138 -333.5t-335 -137.5q-198 0 -335.5 138t-137.5 339z" />
<glyph unicode="T" horiz-adv-x="1456" d="M123 1137v401h1210v-401h-407v-1137h-404v1137h-399z" />
<glyph unicode="U" horiz-adv-x="1517" d="M154 606v930h405v-924q0 -83 59 -141.5t142 -58.5t142 58.5t59 141.5v924h405v-930q0 -166 -81.5 -305.5t-220.5 -220t-304 -80.5q-166 0 -305.5 80.5t-220 220t-80.5 305.5z" />
<glyph unicode="V" horiz-adv-x="1656" d="M20 1538h406l403 -874l406 874h401l-714 -1538h-185z" />
<glyph unicode="W" horiz-adv-x="2551" d="M20 1536h443l434 -940l293 639h170l293 -639l436 940h442l-710 -1536h-291l-256 547l-254 -547h-291z" />
<glyph unicode="X" horiz-adv-x="1656" d="M18 0l564 801l-512 735h491l268 -383l267 383h491l-512 -735l563 -801h-491l-318 451l-319 -451h-492z" />
<glyph unicode="Y" horiz-adv-x="1560" d="M20 1536h465l295 -512l297 512h465l-561 -971v-565h-399v565z" />
<glyph unicode="Z" horiz-adv-x="1454" d="M51 0l654 1130h-615v406h1313l-653 -1133h593v-403h-1292z" />
<glyph unicode="[" horiz-adv-x="696" d="M106 0v1536h486v-319h-162v-889h162v-328h-486z" />
<glyph unicode="\" horiz-adv-x="1167" d="M78 1536h360l709 -1536h-359z" />
<glyph unicode="]" horiz-adv-x="696" d="M106 0v328h162v889h-162v319h486v-1536h-486z" />
<glyph unicode="_" horiz-adv-x="1024" d="M109 0h806v-324h-806v324z" />
<glyph unicode="a" horiz-adv-x="1724" d="M53 0l717 1536h182l723 -1536h-403l-94 201h-629l-92 -201h-404zM707 541h313l-156 338z" />
<glyph unicode="b" horiz-adv-x="1449" d="M156 0v1536h678q121 0 226 -62.5t166.5 -168t61.5 -226.5q0 -150 -98 -276q80 -65 127 -157.5t47 -194.5q0 -120 -61.5 -224t-165.5 -165.5t-224 -61.5h-757zM559 332h270q56 0 95 39t39 94t-40.5 94t-93.5 39h-270v-266zM559 936h195q56 0 94.5 39t38.5 94t-38.5 94 t-94.5 39h-195v-266z" />
<glyph unicode="c" horiz-adv-x="1583" d="M119 768q0 209 103 385.5t279.5 279.5t385.5 103q156 0 295 -58.5t245 -164.5l-282 -285q-100 100 -258 100q-157 0 -259 -101.5t-102 -258.5t102 -258.5t259 -101.5q161 0 258 102l287 -283q-107 -107 -248 -167t-297 -60q-209 0 -385.5 103t-279.5 279.5t-103 385.5z " />
<glyph unicode="d" horiz-adv-x="1615" d="M156 0v1536h569q209 0 385.5 -103t279.5 -279.5t103 -385.5t-103 -385.5t-279.5 -279.5t-385.5 -103h-569zM557 401h170q151 0 258 107t107 258q0 149 -107 255.5t-258 106.5h-170v-727z" />
<glyph unicode="e" horiz-adv-x="1243" d="M156 0v1536h954v-334h-551v-250h488v-340h-488v-282h551v-330h-954z" />
<glyph unicode="f" horiz-adv-x="1251" d="M156 0v1536h962v-332h-559v-250h494v-342h-494v-612h-403z" />
<glyph unicode="g" horiz-adv-x="1732" d="M133 768q0 209 102.5 385.5t279 279.5t384.5 103q155 0 294.5 -59t246.5 -164l-285 -283q-111 103 -256 103q-148 0 -255 -105t-107 -260q0 -102 51.5 -187t134 -131.5t176.5 -46.5q90 0 169.5 41t127.5 111h-297v270h768v-57q0 -209 -103 -385.5t-279.5 -279.5 t-385.5 -103q-208 0 -384.5 103t-279 279.5t-102.5 385.5z" />
<glyph unicode="h" horiz-adv-x="1603" d="M156 0v1536h403v-547h488v547h403v-1536h-403v586h-488v-586h-403z" />
<glyph unicode="i" horiz-adv-x="710" d="M154 0v1536h403v-1536h-403z" />
<glyph unicode="j" horiz-adv-x="1228" d="M39 160q177 177 293 297q51 -51 157 -51q80 0 131.5 47.5t51.5 130.5v952h403v-1012q-2 -103 -36 -190t-91.5 -148t-134 -103.5t-162 -62.5t-176.5 -20q-26 0 -71.5 6.5t-111 22t-135 50t-118.5 81.5z" />
<glyph unicode="k" horiz-adv-x="1757" d="M156 0v1536h403v-518l516 518h565l-700 -702l832 -834h-570l-547 545l-96 -99v-446h-403z" />
<glyph unicode="l" horiz-adv-x="1245" d="M156 0v1536h403v-1130h553v-406h-956z" />
<glyph unicode="m" horiz-adv-x="1925" d="M156 0v1536h182l627 -569l624 569h183v-1536h-406v788l-401 -366l-404 364v-786h-405z" />
<glyph unicode="n" horiz-adv-x="1603" d="M156 0v1536h163l728 -725v725h403v-1536h-166l-725 727v-727h-403z" />
<glyph unicode="o" horiz-adv-x="1783" d="M125 766q0 209 102.5 386t279 280.5t384.5 103.5t385 -103.5t280 -280.5t103 -386q0 -208 -103 -384.5t-279.5 -279t-385.5 -102.5t-385 102.5t-278.5 278.5t-102.5 385zM526 768q0 -151 107 -259t258 -108q152 0 259 108t107 259q0 152 -107 259.5t-259 107.5 q-151 0 -258 -107.5t-107 -259.5z" />
<glyph unicode="p" horiz-adv-x="1429" d="M156 0v1536h647q153 0 283 -76t206 -206t76 -283q0 -114 -44.5 -218t-119.5 -179.5t-178 -120.5t-215 -45h-252v-408h-403zM559 756h250q92 0 156.5 63.5t64.5 155.5t-64.5 156.5t-156.5 64.5h-250v-440z" />
<glyph unicode="q" horiz-adv-x="1968" d="M125 768q0 209 103 385.5t279.5 279.5t385.5 103t385.5 -103t279.5 -279.5t103 -385.5q0 -206 -102 -381l389 -387h-564l-106 104q-173 -104 -385 -104q-209 0 -385.5 103t-279.5 279.5t-103 385.5zM528 766q0 -154 105.5 -259.5t259.5 -105.5q41 0 78 9l-189 188 l285 283l184 -185q6 34 6 70q0 154 -105 259t-259 105t-259.5 -105t-105.5 -259z" />
<glyph unicode="r" horiz-adv-x="1554" d="M156 0v1536h647q153 0 283 -76t206 -206t76 -283q0 -121 -48.5 -228.5t-133.5 -185.5l325 -557h-464l-238 408h-250v-408h-403zM559 756h250q92 0 156.5 63.5t64.5 155.5t-64.5 156.5t-156.5 64.5h-250v-440z" />
<glyph unicode="s" horiz-adv-x="1208" d="M131 477h358q0 -49 33.5 -83t81.5 -34q47 0 82 34t35 81t-35 82t-82 35q-97 0 -184 37t-150 100t-100 150t-37 184q0 197 137.5 335t333.5 138q197 0 335 -137.5t138 -333.5h-356q0 47 -35 82t-82 35t-81 -35t-34 -82t34 -81t81 -34q111 0 208 -48.5t163 -133.5 q102 -127 102 -297q0 -196 -138 -333.5t-335 -137.5q-198 0 -335.5 138t-137.5 339z" />
<glyph unicode="t" horiz-adv-x="1456" d="M123 1137v401h1210v-401h-407v-1137h-404v1137h-399z" />
<glyph unicode="u" horiz-adv-x="1517" d="M154 606v930h405v-924q0 -83 59 -141.5t142 -58.5t142 58.5t59 141.5v924h405v-930q0 -166 -81.5 -305.5t-220.5 -220t-304 -80.5q-166 0 -305.5 80.5t-220 220t-80.5 305.5z" />
<glyph unicode="v" horiz-adv-x="1656" d="M20 1538h406l403 -874l406 874h401l-714 -1538h-185z" />
<glyph unicode="w" horiz-adv-x="2551" d="M20 1536h443l434 -940l293 639h170l293 -639l436 940h442l-710 -1536h-291l-256 547l-254 -547h-291z" />
<glyph unicode="x" horiz-adv-x="1656" d="M18 0l564 801l-512 735h491l268 -383l267 383h491l-512 -735l563 -801h-491l-318 451l-319 -451h-492z" />
<glyph unicode="y" horiz-adv-x="1560" d="M20 1536h465l295 -512l297 512h465l-561 -971v-565h-399v565z" />
<glyph unicode="z" horiz-adv-x="1454" d="M51 0l654 1130h-615v406h1313l-653 -1133h593v-403h-1292z" />
<glyph unicode="&#xa1;" horiz-adv-x="614" d="M143 0v1126h324v-1126h-324zM143 1374q0 68 47.5 115t114.5 47t114.5 -47t47.5 -115t-47.5 -116t-114.5 -48t-114.5 48t-47.5 116z" />
<glyph unicode="&#xad;" horiz-adv-x="944" d="M59 700v324h807v-324h-807z" />
<glyph unicode="&#xbf;" horiz-adv-x="1126" d="M80 502q0 169 100.5 302t257.5 179v160h324v-447h-180q-75 0 -127 -53t-52 -129q0 -75 52 -126.5t127 -51.5t126 49t54 121v8h321v-12q0 -136 -67 -251.5t-182.5 -183t-251.5 -67.5t-251.5 67.5t-183 183t-67.5 251.5zM440 1374q0 70 45.5 116t114.5 46q71 0 117.5 -46 t46.5 -116q0 -69 -46.5 -114.5t-117.5 -45.5q-69 0 -114.5 45.5t-45.5 114.5z" />
<glyph unicode="&#x2000;" horiz-adv-x="834" />
<glyph unicode="&#x2001;" horiz-adv-x="1669" />
<glyph unicode="&#x2002;" horiz-adv-x="834" />
<glyph unicode="&#x2003;" horiz-adv-x="1669" />
<glyph unicode="&#x2004;" horiz-adv-x="556" />
<glyph unicode="&#x2005;" horiz-adv-x="417" />
<glyph unicode="&#x2006;" horiz-adv-x="278" />
<glyph unicode="&#x2007;" horiz-adv-x="278" />
<glyph unicode="&#x2008;" horiz-adv-x="208" />
<glyph unicode="&#x2009;" horiz-adv-x="333" />
<glyph unicode="&#x200a;" horiz-adv-x="92" />
<glyph unicode="&#x2010;" horiz-adv-x="944" d="M59 700v324h807v-324h-807z" />
<glyph unicode="&#x2011;" horiz-adv-x="944" d="M59 700v324h807v-324h-807z" />
<glyph unicode="&#x2012;" horiz-adv-x="944" d="M59 700v324h807v-324h-807z" />
<glyph unicode="&#x2013;" horiz-adv-x="1161" d="M59 700v324h1024v-324h-1024z" />
<glyph unicode="&#x2014;" horiz-adv-x="2185" d="M59 700v324h2048v-324h-2048z" />
<glyph unicode="&#x2018;" horiz-adv-x="581" d="M129 1210v20.5t7.5 52.5t22.5 76.5t49.5 86.5t82.5 90v-168q66 0 114 -46t48 -112t-48 -116t-114 -50t-114 50t-48 116z" />
<glyph unicode="&#x2019;" horiz-adv-x="581" d="M129 1370q0 66 48 116t114 50t114 -50t48 -116v-20.5t-7.5 -52.5t-22.5 -76.5t-49.5 -86.5t-82.5 -90v168q-66 0 -114 46t-48 112z" />
<glyph unicode="&#x201c;" horiz-adv-x="1024" d="M166 1210v20.5t7.5 52.5t22.5 76.5t49.5 86.5t82.5 90v-168q66 0 113.5 -46t47.5 -112t-47.5 -116t-113.5 -50t-114 50t-48 116zM528 1210v20.5t7.5 52.5t22.5 76.5t49.5 86.5t82.5 90v-168q66 0 114 -46t48 -112t-48 -116t-114 -50t-114 50t-48 116z" />
<glyph unicode="&#x201d;" horiz-adv-x="1024" d="M166 1370q0 66 48 116t114 50t113.5 -50t47.5 -116v-20.5t-7.5 -52.5t-22 -76.5t-49 -86.5t-82.5 -90v168q-66 0 -114 46t-48 112zM528 1370q0 66 48 116t114 50t114 -50t48 -116v-20.5t-7.5 -52.5t-22.5 -76.5t-49.5 -86.5t-82.5 -90v168q-66 0 -114 46t-48 112z" />
<glyph unicode="&#x202f;" horiz-adv-x="333" />
<glyph unicode="&#x205f;" horiz-adv-x="417" />
<glyph unicode="&#x25fc;" horiz-adv-x="1536" d="M0 0v1536h1536v-1536h-1536z" />
</font>
</defs>
</svg>
