<svg width="1680" height="837" xmlns="http://www.w3.org/2000/svg"><g><path d="M-21,-107L-118,234L-72,83Z" fill="#fffffb" stroke="#fffffb"/><path d="M-21,-107L-72,83L48,97Z" fill="#fcfef9" stroke="#fcfef9"/><path d="M-21,-107L48,97L96,-120Z" fill="#f9fdf6" stroke="#f9fdf6"/><path d="M96,-120L48,97L182,59Z" fill="#f5fbf2" stroke="#f5fbf2"/><path d="M96,-120L182,59L238,-50Z" fill="#f2faef" stroke="#f2faef"/><path d="M96,-120L238,-50L383,-76Z" fill="#eef9ec" stroke="#eef9ec"/><path d="M96,-120L383,-76L693,-113Z" fill="#e7f6e4" stroke="#e7f6e4"/><path d="M96,-120L693,-113L928,-130Z" fill="#d9f0dc" stroke="#d9f0dc"/><path d="M238,-50L182,59L410,77Z" fill="#edf8ea" stroke="#edf8ea"/><path d="M238,-50L410,77L383,-76Z" fill="#e9f7e6" stroke="#e9f7e6"/><path d="M383,-76L410,77L468,-27Z" fill="#e6f5e2" stroke="#e6f5e2"/><path d="M383,-76L468,-27L693,-113Z" fill="#def2df" stroke="#def2df"/><path d="M468,-27L410,77L516,125Z" fill="#e2f4e1" stroke="#e2f4e1"/><path d="M468,-27L516,125L733,41Z" fill="#d9f0dc" stroke="#d9f0dc"/><path d="M468,-27L733,41L693,-113Z" fill="#d4eeda" stroke="#d4eeda"/><path d="M693,-113L733,41L788,-101Z" fill="#c8eade" stroke="#c8eade"/><path d="M693,-113L788,-101L928,-130Z" fill="#c1e7e0" stroke="#c1e7e0"/><path d="M788,-101L733,41L863,103Z" fill="#c2e8e0" stroke="#c2e8e0"/><path d="M788,-101L863,103L928,-130Z" fill="#bbe5e2" stroke="#bbe5e2"/><path d="M928,-130L863,103L1019,37Z" fill="#b3e0e5" stroke="#b3e0e5"/><path d="M928,-130L1019,37L1103,-24Z" fill="#aadbe8" stroke="#aadbe8"/><path d="M928,-130L1103,-24L1426,-98Z" fill="#9ed0e4" stroke="#9ed0e4"/><path d="M1103,-24L1019,37L1085,54Z" fill="#a5d7e8" stroke="#a5d7e8"/><path d="M1103,-24L1085,54L1281,112Z" fill="#9ecfe4" stroke="#9ecfe4"/><path d="M1103,-24L1281,112L1304,-22Z" fill="#98c9e0" stroke="#98c9e0"/><path d="M1103,-24L1304,-22L1426,-98Z" fill="#94c4dd" stroke="#94c4dd"/><path d="M1304,-22L1281,112L1365,39Z" fill="#91bfda" stroke="#91bfda"/><path d="M1304,-22L1365,39L1426,-98Z" fill="#8db9d7" stroke="#8db9d7"/><path d="M1426,-98L1365,39L1581,16Z" fill="#85add0" stroke="#85add0"/><path d="M1426,-98L1581,16L1615,-33Z" fill="#80a3c9" stroke="#80a3c9"/><path d="M1426,-98L1615,-33L1683,-42Z" fill="#809fc7" stroke="#809fc7"/><path d="M1426,-98L1683,-42L1838,-67Z" fill="#8096c1" stroke="#8096c1"/><path d="M1615,-33L1581,16L1683,-42Z" fill="#8098c3" stroke="#8098c3"/><path d="M1683,-42L1581,16L1690,123Z" fill="#8095c1" stroke="#8095c1"/><path d="M1683,-42L1690,123L1853,64Z" fill="#808aba" stroke="#808aba"/><path d="M1683,-42L1853,64L1838,-67Z" fill="#8084b6" stroke="#8084b6"/><path d="M1838,-67L1853,64L1933,526Z" fill="#7c80a9" stroke="#7c80a9"/><path d="M-72,83L-118,234L48,97Z" fill="#fcfff7" stroke="#fcfff7"/><path d="M48,97L-118,234L112,186Z" fill="#f6fdf1" stroke="#f6fdf1"/><path d="M48,97L112,186L182,59Z" fill="#f5fbf1" stroke="#f5fbf1"/><path d="M182,59L112,186L218,174Z" fill="#f0faec" stroke="#f0faec"/><path d="M182,59L218,174L410,77Z" fill="#edf8ea" stroke="#edf8ea"/><path d="M410,77L218,174L373,190Z" fill="#e7f7e3" stroke="#e7f7e3"/><path d="M410,77L373,190L516,125Z" fill="#e3f5df" stroke="#e3f5df"/><path d="M516,125L373,190L501,255Z" fill="#ddf4d9" stroke="#ddf4d9"/><path d="M516,125L501,255L628,247Z" fill="#d5f1d3" stroke="#d5f1d3"/><path d="M516,125L628,247L733,41Z" fill="#d2eed7" stroke="#d2eed7"/><path d="M733,41L628,247L804,269Z" fill="#c5ebd6" stroke="#c5ebd6"/><path d="M733,41L804,269L863,103Z" fill="#c0e7dd" stroke="#c0e7dd"/><path d="M863,103L804,269L958,188Z" fill="#b5e4db" stroke="#b5e4db"/><path d="M863,103L958,188L1019,37Z" fill="#b1dfe5" stroke="#b1dfe5"/><path d="M1019,37L958,188L1085,54Z" fill="#aadbe8" stroke="#aadbe8"/><path d="M1085,54L958,188L1176,275Z" fill="#a1d7e2" stroke="#a1d7e2"/><path d="M1085,54L1176,275L1281,112Z" fill="#99cddf" stroke="#99cddf"/><path d="M1281,112L1176,275L1292,209Z" fill="#91c7d6" stroke="#91c7d6"/><path d="M1281,112L1292,209L1429,170Z" fill="#8cbdd4" stroke="#8cbdd4"/><path d="M1281,112L1429,170L1365,39Z" fill="#8dbad7" stroke="#8dbad7"/><path d="M1365,39L1429,170L1581,16Z" fill="#85add0" stroke="#85add0"/><path d="M1581,16L1429,170L1543,258Z" fill="#7da6c7" stroke="#7da6c7"/><path d="M1581,16L1543,258L1690,123Z" fill="#7e9bc2" stroke="#7e9bc2"/><path d="M1690,123L1543,258L1590,317Z" fill="#759bb8" stroke="#759bb8"/><path d="M1690,123L1590,317L1777,221Z" fill="#7791b3" stroke="#7791b3"/><path d="M1690,123L1777,221L1853,64Z" fill="#7e86b5" stroke="#7e86b5"/><path d="M1853,64L1777,221L1816,263Z" fill="#7b81ad" stroke="#7b81ad"/><path d="M1853,64L1816,263L1874,408Z" fill="#7280a5" stroke="#7280a5"/><path d="M1853,64L1874,408L1933,526Z" fill="#5f7f9d" stroke="#5f7f9d"/><path d="M-118,234L-117,774L-105,557Z" fill="#afeafc" stroke="#afeafc"/><path d="M-118,234L-105,557L-69,359Z" fill="#d2fbef" stroke="#d2fbef"/><path d="M-118,234L-69,359L112,186Z" fill="#ecfeeb" stroke="#ecfeeb"/><path d="M112,186L-69,359L23,412Z" fill="#ddfde4" stroke="#ddfde4"/><path d="M112,186L23,412L279,415Z" fill="#d2f9df" stroke="#d2f9df"/><path d="M112,186L279,415L218,174Z" fill="#e0f9df" stroke="#e0f9df"/><path d="M218,174L279,415L373,190Z" fill="#dbf8db" stroke="#dbf8db"/><path d="M373,190L279,415L356,404Z" fill="#c9f5d5" stroke="#c9f5d5"/><path d="M373,190L356,404L501,255Z" fill="#d1f5d2" stroke="#d1f5d2"/><path d="M501,255L356,404L581,370Z" fill="#bef2cf" stroke="#bef2cf"/><path d="M501,255L581,370L628,247Z" fill="#c2f0cb" stroke="#c2f0cb"/><path d="M628,247L581,370L705,338Z" fill="#b6edc8" stroke="#b6edc8"/><path d="M628,247L705,338L804,269Z" fill="#b5ebcc" stroke="#b5ebcc"/><path d="M804,269L705,338L876,337Z" fill="#a7e8cd" stroke="#a7e8cd"/><path d="M804,269L876,337L958,188Z" fill="#a8e3d4" stroke="#a8e3d4"/><path d="M958,188L876,337L968,358Z" fill="#9ce0d4" stroke="#9ce0d4"/><path d="M958,188L968,358L1176,275Z" fill="#95dad9" stroke="#95dad9"/><path d="M1176,275L968,358L1076,420Z" fill="#80d5d8" stroke="#80d5d8"/><path d="M1176,275L1076,420L1305,415Z" fill="#72cad4" stroke="#72cad4"/><path d="M1176,275L1305,415L1292,209Z" fill="#7dc6cd" stroke="#7dc6cd"/><path d="M1292,209L1305,415L1400,367Z" fill="#70bcc7" stroke="#70bcc7"/><path d="M1292,209L1400,367L1429,170Z" fill="#7eb8c9" stroke="#7eb8c9"/><path d="M1429,170L1400,367L1543,258Z" fill="#73adc1" stroke="#73adc1"/><path d="M1543,258L1400,367L1590,317Z" fill="#65a7b8" stroke="#65a7b8"/><path d="M1777,221L1590,317L1684,390Z" fill="#6591ab" stroke="#6591ab"/><path d="M1777,221L1684,390L1816,263Z" fill="#6988a7" stroke="#6988a7"/><path d="M1816,263L1684,390L1874,408Z" fill="#5a81a6" stroke="#5a81a6"/><path d="M-69,359L-105,557L23,412Z" fill="#c2f5f2" stroke="#c2f5f2"/><path d="M23,412L-105,557L47,512Z" fill="#b2edf4" stroke="#b2edf4"/><path d="M23,412L47,512L279,415Z" fill="#b8f1ea" stroke="#b8f1ea"/><path d="M279,415L47,512L229,577Z" fill="#a6e8eb" stroke="#a6e8eb"/><path d="M279,415L229,577L333,527Z" fill="#a0e5e7" stroke="#a0e5e7"/><path d="M279,415L333,527L356,404Z" fill="#aceddf" stroke="#aceddf"/><path d="M356,404L333,527L480,487Z" fill="#a3e8de" stroke="#a3e8de"/><path d="M356,404L480,487L581,370Z" fill="#abedd6" stroke="#abedd6"/><path d="M581,370L480,487L691,526Z" fill="#97e4d5" stroke="#97e4d5"/><path d="M581,370L691,526L705,338Z" fill="#9de8d0" stroke="#9de8d0"/><path d="M705,338L691,526L785,540Z" fill="#86ddd8" stroke="#86ddd8"/><path d="M705,338L785,540L876,337Z" fill="#90e3d4" stroke="#90e3d4"/><path d="M876,337L785,540L1007,472Z" fill="#7ad8dc" stroke="#7ad8dc"/><path d="M876,337L1007,472L968,358Z" fill="#83dbd9" stroke="#83dbd9"/><path d="M968,358L1007,472L1076,420Z" fill="#75d5de" stroke="#75d5de"/><path d="M1076,420L1007,472L1179,523Z" fill="#60c8e1" stroke="#60c8e1"/><path d="M1076,420L1179,523L1305,415Z" fill="#5cc2db" stroke="#5cc2db"/><path d="M1305,415L1179,523L1222,580Z" fill="#4bb6dd" stroke="#4bb6dd"/><path d="M1305,415L1222,580L1433,497Z" fill="#46add7" stroke="#46add7"/><path d="M1305,415L1433,497L1400,367Z" fill="#53b0cc" stroke="#53b0cc"/><path d="M1400,367L1433,497L1563,476Z" fill="#47a2c7" stroke="#47a2c7"/><path d="M1400,367L1563,476L1590,317Z" fill="#52a2be" stroke="#52a2be"/><path d="M1590,317L1563,476L1684,390Z" fill="#5096b7" stroke="#5096b7"/><path d="M1684,390L1563,476L1689,473Z" fill="#438cb9" stroke="#438cb9"/><path d="M1684,390L1689,473L1874,408Z" fill="#4883af" stroke="#4883af"/><path d="M1874,408L1689,473L1933,526Z" fill="#3d73ad" stroke="#3d73ad"/><path d="M-105,557L-117,774L-81,694Z" fill="#96c5e6" stroke="#96c5e6"/><path d="M-105,557L-81,694L47,512Z" fill="#a0dcf1" stroke="#a0dcf1"/><path d="M47,512L-81,694L93,708Z" fill="#93cee7" stroke="#93cee7"/><path d="M47,512L93,708L229,577Z" fill="#95d6e7" stroke="#95d6e7"/><path d="M229,577L93,708L239,629Z" fill="#8acbde" stroke="#8acbde"/><path d="M229,577L239,629L333,527Z" fill="#91d7e2" stroke="#91d7e2"/><path d="M333,527L239,629L418,691Z" fill="#87cdda" stroke="#87cdda"/><path d="M333,527L418,691L480,487Z" fill="#8cd6dc" stroke="#8cd6dc"/><path d="M480,487L418,691L512,734Z" fill="#7bc5d0" stroke="#7bc5d0"/><path d="M480,487L512,734L691,526Z" fill="#7dcfd4" stroke="#7dcfd4"/><path d="M691,526L512,734L717,727Z" fill="#6ab8c6" stroke="#6ab8c6"/><path d="M691,526L717,727L785,540Z" fill="#69c5d3" stroke="#69c5d3"/><path d="M785,540L717,727L864,728Z" fill="#5ab1cb" stroke="#5ab1cb"/><path d="M785,540L864,728L987,658Z" fill="#52b3d3" stroke="#52b3d3"/><path d="M785,540L987,658L1007,472Z" fill="#5cc4df" stroke="#5cc4df"/><path d="M1007,472L987,658L1084,663Z" fill="#49b5de" stroke="#49b5de"/><path d="M1007,472L1084,663L1179,523Z" fill="#4cbae2" stroke="#4cbae2"/><path d="M1179,523L1084,663L1222,580Z" fill="#3fabda" stroke="#3fabda"/><path d="M1222,580L1084,663L1249,678Z" fill="#359dd2" stroke="#359dd2"/><path d="M1222,580L1249,678L1384,652Z" fill="#2d94cd" stroke="#2d94cd"/><path d="M1222,580L1384,652L1433,497Z" fill="#339bd0" stroke="#339bd0"/><path d="M1433,497L1384,652L1543,679Z" fill="#2386c4" stroke="#2386c4"/><path d="M1433,497L1543,679L1563,476Z" fill="#2a8bc6" stroke="#2a8bc6"/><path d="M1563,476L1543,679L1715,631Z" fill="#2076ba" stroke="#2076ba"/><path d="M1563,476L1715,631L1689,473Z" fill="#2e7fbf" stroke="#2e7fbf"/><path d="M1689,473L1715,631L1855,651Z" fill="#2266b0" stroke="#2266b0"/><path d="M1689,473L1855,651L1933,526Z" fill="#2965af" stroke="#2965af"/><path d="M1933,526L1855,651L1864,845Z" fill="#164699" stroke="#164699"/><path d="M1933,526L1864,845L1849,1000Z" fill="#0d2483" stroke="#0d2483"/><path d="M-81,694L-117,774L30,804Z" fill="#8eacd5" stroke="#8eacd5"/><path d="M-81,694L30,804L93,708Z" fill="#8cb1d5" stroke="#8cb1d5"/><path d="M93,708L30,804L223,773Z" fill="#85a8cb" stroke="#85a8cb"/><path d="M93,708L223,773L239,629Z" fill="#85b7d3" stroke="#85b7d3"/><path d="M239,629L223,773L418,691Z" fill="#80b7ce" stroke="#80b7ce"/><path d="M418,691L223,773L393,880Z" fill="#789dbc" stroke="#789dbc"/><path d="M418,691L393,880L512,734Z" fill="#739fb9" stroke="#739fb9"/><path d="M512,734L393,880L491,868Z" fill="#6c8dae" stroke="#6c8dae"/><path d="M512,734L491,868L733,833Z" fill="#648dac" stroke="#648dac"/><path d="M512,734L733,833L717,727Z" fill="#6199b4" stroke="#6199b4"/><path d="M717,727L733,833L864,728Z" fill="#5495b8" stroke="#5495b8"/><path d="M864,728L733,833L777,883Z" fill="#4e84af" stroke="#4e84af"/><path d="M864,728L777,883L930,779Z" fill="#4887b5" stroke="#4887b5"/><path d="M864,728L930,779L987,658Z" fill="#4799c5" stroke="#4799c5"/><path d="M987,658L930,779L1080,790Z" fill="#3d8ec4" stroke="#3d8ec4"/><path d="M987,658L1080,790L1084,663Z" fill="#3b97cd" stroke="#3b97cd"/><path d="M1084,663L1080,790L1249,678Z" fill="#338dc7" stroke="#338dc7"/><path d="M1249,678L1080,790L1317,781Z" fill="#297abc" stroke="#297abc"/><path d="M1249,678L1317,781L1384,652Z" fill="#257cbe" stroke="#257cbe"/><path d="M1384,652L1317,781L1396,837Z" fill="#1c67b1" stroke="#1c67b1"/><path d="M1384,652L1396,837L1524,785Z" fill="#175eab" stroke="#175eab"/><path d="M1384,652L1524,785L1543,679Z" fill="#1767b1" stroke="#1767b1"/><path d="M1543,679L1524,785L1667,777Z" fill="#114fa3" stroke="#114fa3"/><path d="M1543,679L1667,777L1715,631Z" fill="#1556a7" stroke="#1556a7"/><path d="M1715,631L1667,777L1855,651Z" fill="#154ca1" stroke="#154ca1"/><path d="M1855,651L1667,777L1864,845Z" fill="#103190" stroke="#103190"/><path d="M-117,774L-82,1029L30,804Z" fill="#868bc0" stroke="#868bc0"/><path d="M30,804L-82,1029L22,1030Z" fill="#7d7ead" stroke="#7d7ead"/><path d="M30,804L22,1030L181,1020Z" fill="#787da9" stroke="#787da9"/><path d="M30,804L181,1020L223,773Z" fill="#7b88b6" stroke="#7b88b6"/><path d="M223,773L181,1020L344,924Z" fill="#727aa9" stroke="#727aa9"/><path d="M223,773L344,924L393,880Z" fill="#7387ae" stroke="#7387ae"/><path d="M393,880L344,924L576,958Z" fill="#68759d" stroke="#68759d"/><path d="M393,880L576,958L491,868Z" fill="#65769f" stroke="#65769f"/><path d="M491,868L576,958L733,833Z" fill="#5c779d" stroke="#5c779d"/><path d="M733,833L576,958L655,1015Z" fill="#546e94" stroke="#546e94"/><path d="M733,833L655,1015L777,883Z" fill="#4e6b9b" stroke="#4e6b9b"/><path d="M777,883L655,1015L867,988Z" fill="#466993" stroke="#466993"/><path d="M777,883L867,988L930,779Z" fill="#426da5" stroke="#426da5"/><path d="M930,779L867,988L1025,926Z" fill="#3864a5" stroke="#3864a5"/><path d="M930,779L1025,926L1080,790Z" fill="#3573b4" stroke="#3573b4"/><path d="M1080,790L1025,926L1152,961Z" fill="#2a5ba8" stroke="#2a5ba8"/><path d="M1080,790L1152,961L1274,936Z" fill="#2253a3" stroke="#2253a3"/><path d="M1080,790L1274,936L1317,781Z" fill="#2260ac" stroke="#2260ac"/><path d="M1317,781L1274,936L1396,837Z" fill="#194fa2" stroke="#194fa2"/><path d="M1396,837L1274,936L1468,1001Z" fill="#0f3790" stroke="#0f3790"/><path d="M1396,837L1468,1001L1545,919Z" fill="#072c8a" stroke="#072c8a"/><path d="M1396,837L1545,919L1524,785Z" fill="#0b3c96" stroke="#0b3c96"/><path d="M1524,785L1545,919L1667,777Z" fill="#0b3793" stroke="#0b3793"/><path d="M1667,777L1545,919L1759,971Z" fill="#061b82" stroke="#061b82"/><path d="M1667,777L1759,971L1864,845Z" fill="#08157e" stroke="#08157e"/><path d="M1864,845L1759,971L1849,1000Z" fill="#02006c" stroke="#02006c"/><path d="M22,1030L1849,1000L655,1015Z" fill="#3e668c" stroke="#3e668c"/><path d="M22,1030L655,1015L181,1020Z" fill="#6d7892" stroke="#6d7892"/><path d="M181,1020L655,1015L576,958Z" fill="#62748d" stroke="#62748d"/><path d="M181,1020L576,958L344,924Z" fill="#697798" stroke="#697798"/><path d="M655,1015L1849,1000L1468,1001Z" fill="#103e85" stroke="#103e85"/><path d="M655,1015L1468,1001L867,988Z" fill="#2d5d94" stroke="#2d5d94"/><path d="M867,988L1468,1001L1152,961Z" fill="#1e4f93" stroke="#1e4f93"/><path d="M867,988L1152,961L1025,926Z" fill="#2b5c9c" stroke="#2b5c9c"/><path d="M1152,961L1468,1001L1274,936Z" fill="#13428f" stroke="#13428f"/><path d="M1468,1001L1849,1000L1759,971Z" fill="#00116c" stroke="#00116c"/><path d="M1468,1001L1759,971L1545,919Z" fill="#001d79" stroke="#001d79"/></g></svg>